<svg xmlns="http://www.w3.org/2000/svg" viewBox="0 0 500 500" enable-background="new 0 0 500 500">
  <path d="M250 6.6c-138.1 0-250 111.8-250 249.8 0 109.1 70 201.9 167.5 236 13.1 3.3 11.1-6 11.1-12.4v-43.3c-75.8 8.9-78.9-41.3-84-49.7-10.3-17.5-34.6-22-27.3-30.4 17.3-8.9 34.9 2.2 55.2 32.3 14.7 21.8 43.5 18.2 58.1 14.5 3.2-13.1 10-24.9 19.4-34-78.5-14.1-111.3-62-111.3-119 0-27.6 9.1-53.1 27-73.6-11.4-33.8 1.1-62.7 2.7-67 32.5-2.9 66.2 23.2 68.8 25.3 18.4-5 39.5-7.6 63.1-7.6 23.7 0 44.8 2.7 63.4 7.8 6.3-4.8 37.6-27.3 67.8-24.5 1.6 4.3 13.8 32.6 3.1 65.9 18.1 20.6 27.3 46.2 27.3 73.9 0 57.1-33 105.1-111.7 118.9 6.7 6.6 12.1 14.5 15.8 23.3 3.7 8.7 5.5 18.1 5.5 27.6v62.8c.4 5 0 10 8.4 10 98.9-33.2 170.1-126.6 170.1-236.7 0-138.1-111.9-249.9-250-249.9z"/>
</svg>