<svg xmlns="http://www.w3.org/2000/svg" style="display: none;">
  <symbol id="check-circle"  viewBox="0 0 500 500" enable-background="new 0 0 500 500">
    <path d="M250,0C111.9,0,0,111.9,0,250c0,138.1,111.9,250,250,250c138.1,0,250-111.9,250-250C500,111.9,388.1,0,250,0z M358,168.4L240.5,331.3c-1.6,2.3-3.8,4.2-6.3,5.5c-2.5,1.3-5.3,2-8.1,2c-2.8,0-5.6-0.7-8.1-2c-2.5-1.3-4.7-3.2-6.3-5.5L142,234.9 c-2.1-3,0-7.1,3.6-7.1h26.2c5.7,0,11.1,2.7,14.5,7.4l39.7,55.1l87.7-121.7c3.3-4.6,8.7-7.4,14.5-7.4h26.2 C358,161.3,360.1,165.4,358,168.4z"/>
  </symbol>
  <symbol id="link-demo"  viewBox="0 0 500 500" enable-background="new 0 0 500 500">
    <path d="M482.2 42.5h-464.1c-9.9 0-17.8 8-17.8 17.8v276.7c0 9.9 8 17.8 17.8 17.8h211.9v62.5h-95.9c-4.9 0-8.9 4-8.9 8.9v26.8c0 2.5 2 4.5 4.5 4.5h241c2.5 0 4.5-2 4.5-4.5v-26.8c0-4.9-4-8.9-8.9-8.9h-95.9v-62.5h211.9c9.9 0 17.8-8 17.8-17.8v-276.6c-.1-9.9-8.1-17.9-17.9-17.9zm-22.4 272.2h-419.4v-232h419.4v232z"/>
  </symbol>
  <symbol id="link-github"  viewBox="0 0 500 500" enable-background="new 0 0 500 500">
    <path d="M252.6 350.5c0 2.8 2.1 5 4.7 5h115.6c2.6 0 4.7-2.2 4.7-5v-30c0-2.7-2.1-5-4.7-5h-115.6c-2.6 0-4.7 2.2-4.7 5v30zm-121.8 3.8l120-100.6c2.4-2 2.4-5.7 0-7.7l-120-100.5c-.7-.6-1.6-1-2.6-1.1-.9-.1-1.9 0-2.8.4-.9.4-1.6 1-2.1 1.8s-.8 1.7-.8 2.7v39.2c0 1.5.6 2.9 1.8 3.8l68.6 57.6-68.6 57.6c-.6.5-1 1-1.3 1.7-.3.7-.5 1.4-.5 2.1v39.2c.1 4.2 5.1 6.6 8.3 3.8zm349.2-354.3h-459.8c-11.1 0-20 8.9-20 20v459.8c0 11.1 8.9 20 20 20h459.8c11.1 0 20-8.9 20-20v-459.8c0-11.1-8.9-20-20-20zm-25 454.8h-409.8v-409.8h409.8v409.8z"/>
  </symbol>
</svg>