<svg xmlns="http://www.w3.org/2000/svg" style="display: none;">
  <!-- BEM -->
  <symbol id="bem-1" viewBox="0 0 200 200">
    <path d="M30 60.1h32.7v9.6h-32.7v-9.6zm0-17.9h32.7v9.6h-32.7v-9.6zm58.7 35.7h-58.7v9.6h56.5c6.2 0 20.6.1 26 8.8v-5.4c-2.6-8.5-10.3-13-23.8-13zm.2 17.8h-58.9v9.6h56.5c13.8 0 22.4.6 26 2.5v-4.3c-2.7-6.7-14.3-7.8-23.6-7.8zm-.2 45.4h-58.7v-9.6h56.5c6.2 0 20.6-.1 26-8.8v5.4c-2.6 8.5-10.3 13-23.8 13zm.2-17.9h-58.9v-9.6h56.5c13.8 0 22.4-.6 26-2.5v4.3c-2.7 6.7-14.3 7.8-23.6 7.8zm37.9 34.6h43.2v-5.9h-41.9c-3.7 0-12.5-.1-15.7-5.2v3.3c1.5 5 6.2 7.8 14.4 7.8zm-.1-10.9h43.2v-5.9h-41.8c-8.4 0-13.6-.3-15.7-1.5v2.6c1.6 4.1 8.6 4.8 14.3 4.8z"/>
  </symbol>
  <!-- BOOTSTRAP -->
  <symbol id="bootstrap-1" viewBox="0 0 200 200">
    <path d="M50.3 40h58.3c10.8 0 19.4 2.5 25.9 7.4s9.7 12.4 9.7 22.4c0 6.1-1.5 11.2-4.4 15.5-3 4.3-7.2 7.7-12.7 10v.3c7.4 1.6 13 5.1 16.8 10.5 3.8 5.4 5.7 12.2 5.7 20.4 0 4.7-.8 9.1-2.5 13.2s-4.3 7.6-7.9 10.6-8.2 5.3-13.8 7.1c-5.6 1.7-12.3 2.6-20 2.6h-55.1v-120zm21 50.3h34.3c5 0 9.2-1.4 12.6-4.3 3.4-2.9 5-7 5-12.4 0-6.1-1.5-10.3-4.5-12.8s-7.4-3.7-13.1-3.7h-34.3v33.2zm0 52.6h37.1c6.4 0 11.4-1.6 14.9-5 3.5-3.3 5.3-8 5.3-14.1 0-5.9-1.7-10.5-5.3-13.7s-8.5-4.8-14.9-4.8h-37.1v37.6z"/>
  </symbol>
  <!-- CHAKRA UI -->
  <symbol id="chakra-ui-1" viewBox="0 0 200 200">
    <path d="M100 30c-38.8 0-70 31.2-70 70s31.2 70 70 70 70-31.2 70-70-31.2-70-70-70zm16.3 25.3c.8 0 1.4.8 1 1.6L99.6 89.4c-.3.5-.1 1.2.4 1.5.2.1.3.1.5.1h30.7c1 0 1.5 1.2.7 1.9l-53.8 50.2c-1 .9-2.4-.4-1.6-1.4l25.5-35.1c.4-.5.2-1.2-.3-1.5-.2-.1-.4-.2-.6-.2H68.7c-.6 0-1.1-.5-1.1-1.1 0-.3.1-.6.3-.8l47.7-47.4c.2-.2.5-.3.7-.3z"/>
  </symbol>
  <!-- CSS -->
  <symbol id="css-1" viewBox="0 0 200 200">
    <path d="M38.3 30l11.2 126 50.5 14 50.5-14 11.2-126h-123.4zm102.5 118l-40.8 11.3v-16l-31.7-8.8-2.2-24.3h15.5l1.1 12.3 17.3 4.6v-24.7h-34.6l-1.4-15.4h36v-15.8h-37.3l-1.4-15.5h38.8v-15.4h50.5l-9.8 107.7z"/>
  </symbol>
  <symbol id="css-2" viewBox="0 0 200 200">
    <path d="M120.3 87h-20.3v-15.8h21.7l-1.4 15.8zm-3.1 35.5l1.8-20h-19v24.7l17.2-4.7zm-17.2-82.2v15.5h38.7l-7 78.7-31.6 8.8v16l40.8-11.3 9.6-107.7h-50.5z"/>
  </symbol>
  <symbol id="css-3" viewBox="0 0 200 200">
    <path d="M64 87l1.4 15.5h34.6v-15.5h-36zm36-31.2h-38.8l1.4 15.5h37.3v-15.5zm0 87.4v-16.1l-17.3-4.6-1.1-12.3h-15.5l2.2 24.3 31.7 8.7z"/>
  </symbol>
  <!-- CYPRESS -->
  <symbol id="cypress-1">
    <path fill-rule="evenodd" d="M170 100.55c0-38.69-31.309-70-70-70-38.69 0-70 31.31-70 70 0 38.691 31.31 70 70 70 38.691 0 70-31.309 70-70Zm-46.014 46.053c5.037-4.078 8.635-9.595 11.033-17.03l18.709-57.566h-16.07l-12.233 47.732-11.513-47.732h-16.55l19.908 63.802s-1.919 2.159-2.879 2.878c-2.638 1.919-6.716 3.118-12.232 3.838l1.679 11.033c8.395-.719 15.111-2.878 20.148-6.955ZM87.527 71.527c-2.878-1.2-6.476-1.679-10.313-1.679-5.517 0-10.314 1.44-14.392 3.598-4.078 2.639-7.436 6.236-9.594 11.034-2.159 4.557-3.358 10.073-3.358 16.07 0 6.236 1.2 11.513 3.358 16.07 2.158 4.558 5.517 8.156 9.594 10.554 4.317 2.399 9.115 3.598 14.871 3.598 7.196 0 13.432-2.159 18.949-6.716l-6.716-9.594c-2.399 1.439-4.317 2.398-5.996 3.118-1.68.719-3.598.959-5.517.959-4.078 0-6.956-1.199-9.115-4.077-2.159-2.639-3.118-7.196-3.118-13.672 0-12.713 4.078-18.949 12.233-18.949 1.919 0 4.077.24 5.756.96 1.68.72 3.598 1.678 5.517 3.118l6.716-9.115c-2.878-2.398-5.756-4.078-8.875-5.277Z" clip-rule="evenodd"/>
  </symbol>
  <!-- D3.JS -->
  <symbol id="d3js-1" viewBox="0 0 200 200">
    <path d="M129.6 33.7h-47.5c11.6 7.1 21.2 17.1 27.8 29.1h19.8c6.2 0 11.3 5.1 11.3 11.3 0 6.2-5.1 11.3-11.3 11.3h-4.4l44.6 44c.1-1.2.2-2.4.2-3.6 0-9.8-3.5-18.8-9.4-25.8 5.8-7 9.4-16 9.4-25.8-.1-22.4-18.2-40.5-40.5-40.5z"/>
  </symbol>
  <symbol id="d3js-2" viewBox="0 0 200 200">
    <path d="M170 127.6c-1 21.4-18.7 38.5-40.3 38.5h-2.9l-21.6-21.3c1.8-2.5 3.4-5.1 4.9-7.8h19.6c6.2 0 11.3-5.1 11.3-11.3 0-6.2-5.1-11.3-11.3-11.3h-11.7c.9-4.7 1.4-9.5 1.4-14.4 0-5-.5-9.9-1.4-14.7h7.2l44.6 44c.1-.6.1-1.2.2-1.7zm-128.3-93.9h-11.7v29.1h11.7c20.5 0 37.2 16.7 37.2 37.2 0 5.6-1.2 10.9-3.5 15.6l21.4 21.1c7-10.5 11.1-23.2 11.1-36.7.2-36.6-29.6-66.3-66.2-66.3z"/>
  </symbol>
  <symbol id="d3js-3" viewBox="0 0 200 200">
    <path d="M126.7 166.1h-44.3c8.9-5.5 16.6-12.8 22.7-21.3l21.6 21.3zm-29.8-29.4l-21.4-21.1c-5.9 12.7-18.8 21.6-33.7 21.6h-11.8v29.1h11.7c23 0 43.3-11.7 55.2-29.6z"/>
  </symbol>
  <!-- DOCKER -->
  <symbol id="docker-1" viewBox="0 0 200 200">
    <path d="M167.1 88c-3.2-2.2-10.4-3-16-1.9-.7-5.5-3.7-10.3-8.9-14.5l-3-2.2-2.1 3.1c-2.6 4.1-3.9 9.8-3.5 15.3.1 1.9.8 5.3 2.8 8.3-1.8 1.1-5.6 2.5-10.6 2.5h-95l-.3 1.1c-.9 5.5-.9 22.6 9.9 35.7 8.1 10 20.2 15 36.1 15 34.4 0 59.9-16.5 71.9-46.5 4.7.1 14.8 0 20-10.3.1-.3.4-.8 1.3-2.9l.5-1.1-3.1-1.6zm-60.5-38.5H92.1v13.7h14.4V49.5h.1zm0 16.4H92.1v13.7h14.4V65.9h.1zm-17.1 0H75v13.7h14.4V65.9h.1zm-17.1 0H58v13.7h14.4V65.9zM55.3 82.3H40.9V96h14.4V82.3zm17.1 0H58V96h14.4V82.3zm17.1 0H75V96h14.4V82.3h.1zm17.1 0H92.1V96h14.4V82.3h.1zm17 0h-14.4V96h14.4V82.3z"/>
  </symbol>
  <!-- ECHARTS -->
  <symbol id="echarts-1" viewBox="0 0 200 200">
    <path d="M100 30c-38.7 0-70 31.3-70 70s31.3 70 70 70 70-31.3 70-70-31.3-70-70-70zm-4.6 31c12.8-.1 25.5 6.6 31.7 19.3 5.3 10.8 5.1 21.1-.6 32.9-2.8 5.8-2.8 6.2-1.4 9.2 1.2 2.6 4.2 4.5 7.1 4.5 2.6 0 6.7-3.4 7.3-6.1.6-2.6-1.1-6.5-3.5-8-.8-.5-1.5-1-2.3-1.5-.8-.6 2.5-2.2 4.3-2.2 4 0 7.3 3.1 8 7.5.3 1.9.8 2.5 2.6 2.9 5 1.3 7.6 8.5 4.4 12.3-1.3 1.6-1.3 1.6-1.8.2-1.6-4.7-3.9-6.5-8.2-6.5-1.9 0-3.3.7-6.4 3.2-5.9 4.8-10.9 7.6-17 9.5-7.4 2.2-16.1 2.8-23.8.9-12.6-2.5-24.7-12.3-30.6-24.8-7.4-15.6-5.2-31.8 5.8-43C77.5 64.7 86.2 61 95.4 61z"/>
  </symbol>
  <!-- ELECTRON -->
  <symbol id="electron-1" viewBox="0 0 200 200">
    <path d="M81 60.1c-18.3-3.3-32.8.2-38.5 10.1-4.3 7.5-3.1 17.3 3 27.9.5.9 1.7 1.2 2.6.7s1.2-1.7.7-2.6c-5.5-9.5-6.5-18-3-24.1 4.8-8.3 17.7-11.4 34.6-8.3 1 .2 2-.5 2.2-1.5.1-1-.6-2-1.6-2.2zm27-17c-1.5 2.9-4.5 4.9-8 4.9-5 0-9-4-9-9s4-9 9-9 9 4 9 9v.4c14.9 7.7 25.2 33.9 25.2 64.2 0 12.5-1.7 24.4-5 34.8-.3 1-1.4 1.5-2.4 1.2-1-.3-1.5-1.4-1.2-2.4 3.1-10 4.8-21.6 4.8-33.6.1-28.6-9.4-53.1-22.4-60.5zm-64.3 84.4h.7c5 0 9 4 9 9s-4 9-9 9-9-4-9-9c0-3.4 1.9-6.3 4.6-7.9-1.3-16.7 16.3-39.2 43-54.6 11.1-6.4 22.6-10.9 33.4-13.3 1-.2 2 .4 2.2 1.4.2 1-.4 2-1.4 2.2-10.4 2.2-21.6 6.6-32.3 12.8-25.1 14.6-41.7 35.5-41.2 50.4zm104.1 13.4c-.7-1.3-1.2-2.8-1.2-4.4 0-5 4-9 9-9s9 4 9 9-4 9-9 9c-2 0-3.8-.6-5.2-1.7-14.3 8.4-41.7 4.1-67.4-10.7-11-6.3-20.6-14-28-22.1-.7-.8-.6-2 .1-2.7.8-.7 2-.6 2.7.1 7.1 7.8 16.4 15.2 27.1 21.4 24.2 14 49.8 18.2 62.9 11.1zm-.6-32.2c-.7.8-1.9.9-2.6.2-.8-.7-.9-1.9-.2-2.6 11.1-13.1 14.8-25.8 10-34-3.5-6-11.2-9.3-21.9-9.5-1 0-1.9-.9-1.9-1.9 0-1 .9-1.9 1.9-1.9 11.9.2 20.8 4 25.1 11.4 5.8 9.9 1.6 24.1-10.4 38.3zm-75.2 33c-.3-1 .2-2 1.1-2.4 1-.3 2 .2 2.4 1.1 5.8 16.2 14.9 25.8 24.5 25.8 6.9 0 13.6-4.9 19-14 .5-.9 1.7-1.2 2.6-.6.9.5 1.2 1.7.6 2.6-6.1 10.1-13.8 15.8-22.2 15.8-11.5 0-21.7-10.8-28-28.3zm88.8-5.2c0-2.9-2.3-5.2-5.2-5.2s-5.2 2.3-5.2 5.2c0 2.9 2.3 5.2 5.2 5.2s5.2-2.3 5.2-5.2zm-116.4 5.2c2.9 0 5.2-2.3 5.2-5.2 0-2.9-2.3-5.2-5.2-5.2s-5.2 2.3-5.2 5.2c0 2.9 2.3 5.2 5.2 5.2zm55.7-97.5c2.9 0 5.2-2.3 5.2-5.2s-2.3-5.2-5.2-5.2c-2.9 0-5.2 2.3-5.2 5.2s2.3 5.2 5.2 5.2zm1.3 65.7c-3.5.8-7-1.5-7.7-5-.8-3.5 1.5-7 5-7.7 3.5-.8 7 1.5 7.7 5 .8 3.5-1.5 6.9-5 7.7z"/>
  </symbol>
  <!-- EMOTION -->
  <symbol id="emotion-1" viewBox="0 0 200 200">
    <path d="M28 200l5.2-8.6c.8-1.3 1.7-2.6 2.6-3.8.5-.7 1.2-1.4 1.8-2.1l.3.1c-.2-.4-.4-.8-.7-1.2-1.6-2.8-3.3-5.7-4.8-8.5-1.2-2.1-1.1-2.2 1-3.2 1.7-.8 3.5-1.4 5.3-1.9 5.7-1.6 11.5-2.8 17.4-3.6 1.6-.2 3.2-.3 4.8-.7-.8-.3-1.5-.6-2.3-.7-4.5-1.1-9-2-13.7-1.7l-3.2.3c-.3 0-.8 0-.9-.2-.1-.2-.1-.7.1-1 .5-.7 1.1-1.5 1.8-2.1l4.4-4.3c1.9-1.9 3.8-3.9 5.6-5.8.2-.2.5-.4.9-.7-1.5.3-2.8.5-4.1.7l-5.9 1.2c-.5.1-.9.2-1.4.2-.4 0-.8-.2-1.2-.3.2-.3.4-.7.7-1 2.7-2.8 5.5-5.6 8.1-8.5 2.1-2.3 2.9-5.3 3.5-8.3v-.7c-.4.2-.7.3-.9.4-4 1.8-8.1 3.7-12.5 4.3-.9.1-1.8.2-2.7.2-.3 0-.7-.2-.8-.4-.1-.2.1-.6.3-.8l5.1-5.3c4.5-4.6 7.8-10 10.5-15.8l.2-.4.3-.3c-2.8-7.5-3.8-15.3-4.7-23.3-.5-4.4-1-8.7-.9-13.1.1-6.5 1.3-12.7 4.4-18.5 2.4-4.4 5.7-8.1 9.6-11.2 2-1.6 4-2.9 6.4-3.7.4-.1.8 0 1.3 0l-1.8.8c-2.1 1.4-4.2 2.6-6.1 4.2-5.3 4.4-9.3 9.8-11.3 16.6-1.7 6.5-1.9 13.1-1.3 19.7.5 5.3 1.2 10.6 1.9 15.8.7 4.9 1.8 9.8 3.8 14.3l3.6 7.2c3.1 6.9 6.8 13.5 11.4 19.5.5.7 1 1.3 1.4 2h.2c0-.3.1-.7 0-.9-1.1-2.4-1.9-5-3.3-7.3-1.5-2.7-2.8-5.5-4-8.3-3-7-5.6-14.1-6.2-21.8-.3-3.6-.6-7.1.4-10.6 1.6-5.8 3.3-11.6 7.6-16.2 1.1-1.1 1.3-2.5 1.1-3.9-.4-2.4-.6-4.7-.2-7.1 0-.3.1-.5.2-.8l.3-.1c.3.4.6.7.7 1.2.7 2.5 1.3 5 1.9 7.5.3 1.2.6 2.4.6 3.7.1 2.8 0 5.6 0 8.3.1 0 .2.1.4.1 1.3-2.1 2.7-4.1 3.8-6.3 2.9-5.5 4.6-11.3 4.3-17.5 0-.5-.2-.9-.6-1.3-1.7-1.7-3.5-3.2-4.6-5.4-1.5-2.9-2.5-5.8-3.3-8.9-.4-1.4-.7-2.8-1-4.3l.1-1.4c-.4-3.5 1-6.3 3.2-8.9 3.4-4 7.8-5.5 12.8-5.9 6.4-.6 12.6.2 18.9 1.4 8.9 1.7 17.1 5.3 24.8 10.1 4.8 3 9.5 6.3 13.5 10.3 3.4 3.4 6.8 6.8 9.6 10.6 2.3 3.1 4 6.6 5.7 10.1 2.9 5.9 5.5 11.9 8.3 17.9.1.2.2.4.2.5 0 .2 0 .5-.1.7-.1.1-.5.1-.7 0-.4-.2-.7-.4-1-.7-4.2-3.7-8.6-7.3-12.3-11.7-1.5-1.8-3-3.5-4.4-5.2-.5-.6-1-1.1-1.6-1.5l2.6 5.2c3.3 6.5 5.6 13.2 5.7 20.6 0 6.7-1.8 12.8-5.4 18.4l-3.4 5.3c-.2.3-.3.7-.2 1 .9 5.3 3.2 10 6 14.5 1.5 2.5 3.3 4.8 4.9 7.2l.5 1.2c-.5.1-1 .3-1.5.2-2.8-.6-5.3-1.8-7.6-3.3-1.4-.9-2.8-1.7-4.3-2.5l-.3.1c0 .7-.1 1.4.1 2 .8 2.3 1.7 4.6 2.6 6.9.8 2.1 2.2 3.6 3.9 5 2.6 2 5 4.3 7.4 6.5.6.5 1 1.2 1.4 1.9.5.9.2 1.3-.8 1.3l-5.9.3c0 .1 0 .2-.1.2l.7.4c3.7 1.8 7.4 3.4 11.1 5.3 2.3 1.2 4.5 2.7 6.8 4.1.4.2.5.6.2.9l-1.5 1.6c-1.8 1.7-3.7 3.4-5.6 5.2 4.8 5.1 8.4 10.7 8.7 18.1-1.8 0-3.4.1-4.9.1-1.3 0-2.6.1-4 .1h-14.1c.3-.9.5-1.7.9-2.6 1.5-3.6 4.1-6.6 6.5-9.6 3.5-4.4 7.8-8.1 12-11.8.4-.4.9-.8 1.4-1.3-.6-.4-1.1-.7-1.5-1-.7.6-1.3 1.2-1.9 1.7-2.7 2.2-5.5 4.4-8.1 6.7-5.5 4.8-9.6 10.7-11.7 17.8h-.7c0-.2 0-.5.1-.7 1.1-2.6 2.1-5.3 3.5-7.8 4-6.8 9.9-11.7 16.1-16.3.8-.6 1.6-1.2 2.5-1.8-.6-.3-1.1-.5-1.5-.8-1.1.9-2.1 1.7-3.2 2.5-4.1 3.3-8.3 6.7-11.6 10.9-3.3 4.2-5.6 8.8-7.1 13.9h-.7c0-.3 0-.5.1-.8 2-6.5 5.4-12.1 10.1-17 3.6-3.7 7.5-7 11.9-9.8-1-.6-1.9-1.1-2.9-1.6l-10.4-5.1c-.3-.2-.8-.2-1.2-.1-2.8.9-5.7 1.7-8.4 2.9-3 1.3-6 2.7-8.8 4.4-4.6 2.7-8.2 6.6-11.9 10.4-2.9 2.9-5.4 6.1-8 9.3-1.9 2.4-3.6 4.9-5.4 7.4h-18.1c-1.8-2.3-3.5-4.8-5.4-7-3.5-3.9-7.7-7-12.1-9.7-4.6-2.9-9.1-5.7-14.3-7.5l-10.2-3.9c-2.6-1-5.3-1.8-8.2-.8-.9.3-1.9.5-2.9.8l-.8.3c.1.3.2.5.3.7 2 3.3 4 6.5 5.9 9.8 3.3 5.6 7.4 10.6 11.7 15.5.6.6 1.1 1.3 1.6 2h-1.3l-2.1-2.7c-2.5-3.2-5.2-6.4-7.6-9.7-1.8-2.4-3.3-5-4.9-7.6-1.2-2.1-2.3-4.4-3.4-6.5-.2-.4-.4-.8-.5-1.2l-1.5.6c.2.6.4 1.1.6 1.5 3.9 9.6 9.9 17.9 16.5 25.8h-1.2c-.5-.8-1-1.6-1.6-2.4-2.8-3.4-5.6-6.7-7.9-10.5-2.4-4-4.4-8.1-6.1-12.4-.2-.6-.4-1.2-.6-1.9l-2.6 1.2c.2.5.4 1 .6 1.4 2.3 4.1 4.6 8.3 7.1 12.4.8 1.4 2 2.6 3 3.9l6.3 8.4c-7-.3-14.1-.3-21.2-.3zm114.7-76.2c.4-.4.6-.7.8-1l1.9-2.6c2.3-3.6 4.7-7.1 6.2-11.2 2.3-6.3 2.4-12.8.9-19.3-1.5-6.1-4.1-11.8-7.3-17.2-.9-1.5-1.8-3.1-3.3-4.2-.1-.1-.2-.1-.2-.2v-.4s.3-.1.4 0c.2.1.3.2.5.4 1.8 1.6 3.6 3.1 5.8 4.3 2.2 1.1 3.8 3.1 5.5 5 2.6 3 5.3 5.9 8 8.8.9.9 1.9 1.7 2.8 2.5l-.2.2-.1-.4-6.4-14.1c-3-6.6-6.6-12.8-11.7-18.1-6.7-6.9-14.2-12.8-22.7-17.4-7.9-4.2-16.2-6.8-25.1-8-5.7-.9-11.1-1.1-16.5-.1-5.3.9-9.1 3.8-11.5 8.6-.3.6-.8 1.3.4 1.6.1 0 .1.1.2.2 1 1.5 2.2 2.9 3.1 4.5 2.6 4.8 6.7 8 11.5 10.2 4.8 2.2 9.6 4.4 13.9 7.4 2.6 1.8 5.2 3.8 7.3 6.3 6.3 7.4 10.9 15.7 14.2 24.8.3.8.6 1.5.9 2.2l4.5 9.3.8 1.8c.1 0 .2 0 .3-.1-.2-1.2-.3-2.4-.6-3.6-1.3-5.6-2.9-11.2-4.7-16.6-.9-2.8-1.8-5.6-3.3-8.1l-3.7-5.7c-.1-.2-.3-.4-.3-.6 0-.1 0-.3.1-.3h.3l.5.6c.9 1.1 1.6 2.4 2.6 3.4 3.7 3.7 7.1 7.7 10 12 2.2 3.3 4.4 6.6 5.7 10.3 1.5 4.5 2.4 9.1 3.4 13.7.3 1.5.1 3.1.1 4.7.2-.1.2-.3.3-.4 1-3.3 1.7-6.7 1.7-10.2-.1-2.8-.1-5.7-.6-8.4-.6-3.5-1.7-6.9-2.6-10.4l-.2-.9.3-.2.2.4c1 1.9 2.1 3.7 3 5.6 1.7 3.4 3.3 6.8 3.6 10.6l.6 9c.2 2 0 4-.3 6-.4 1.8-.7 3.4-1 5.3zm-31.5-36.9c.1.4.3.7.3 1.1.4 2.1.9 4.2 1.2 6.3.1.4-.2.9-.4 1.4l-1.2-.5c-.4.5-.8 1.1-1.3 1.8-1.4-2.7-2.8-5.4-4.3-8.2-3 4.5-5.8 8.8-8.7 13.2.3-.1.4-.1.5-.1 2.3-.7 4.7-1.4 7-2 .9-.3 1.8-.5 2.7-.6.4-.1 1 0 1.2.3.2.2 0 .8-.2 1.2-.2.4-.6.7-.9 1.1l-4.4 4.3c-8.3 8.3-16.2 17-23.7 26.1-.9 1.1-2 2.1-3 3.2-.7.7-1.3 1.5-1.8 2.1.4.2.6.4.9.6.9.8 1.8 1.7 2.8 2.5 4.8 3.6 9.7 7.1 14.6 10.7.3.2.6.4.9.4 3.3.8 6.7 1.3 10.1.5 5.4-1.3 10.5-3.3 15.3-6.1 2-1.2 4-2.3 5.4-4.4 2.4-3.4 4.5-6.9 5.3-11.1 1-5.7.5-11.4-.6-17-.1-.6 0-1.3-.9-1.4-.1 0-.1-.2-.2-.3l-.4-1.1c-3.4 1.8-6.6 1.4-9.8-.4-3.3-1.9-4.2-5.1-5.1-8.6-1.2 2.1-2.4 4.1-3.5 6.2l-.2-.1c0-.2 0-.4.1-.5 1.1-2.2 2.2-4.4 3.5-6.6 1.1-1.9 2.6-3.6 4.8-4.5.4-.2.8-.4 1.3-.6-2.4-3.2-4.1-6.6-7.3-8.9zm-69.7 76.7c1.3-.1 2.4-.2 3.6-.3 4.1-.2 8.1.4 12.1 1.4 2.8.7 5.4 1.8 8.1 2.8 3.3 1.2 6.5 2.8 9.3 5l3.6 2.7c6.8 5 12.5 11.1 16.7 18.5.8 1.4 1.8 2.7 2.7 4.1l.3.2c.1-.3.2-.5.2-.7 0 .1 0 .2.1.3.6 0 1.3.3 1.6 0 .4-.4.5-1.2.8-1.9-.7.3-1.2.5-1.1-.3 0-.1 0-.2-.1-.2-1.2-.6-1.3-1.9-1.9-2.9-1.8-3.6-3.4-7.4-5.4-10.9-3.4-6.3-6.9-12.5-10.4-18.8-.1-.2-.2-.4-.3-.7l.2-.1.6.7c.3-.6.6-1.1 1-1.6 1.2-1.5 2.1-3.1 2.3-5l.2-5.8c0-.6-.2-.9-.7-1.2-3.1-1.9-6.2-3.8-9.2-5.7-.2-.1-.5-.2-.7-.1-.7.2-1.3.5-1.9.8-1 .5-1 .5-.5 1.5l4 7.5.3.5c0 .3 0 .6-.1.9-.3 0-.7 0-.9-.1-.4-.2-.7-.6-1-1-1.7-2.1-3.4-4.3-5.1-6.5l-.6-.8c-7.5 4.8-14.6 10-21.3 15.7h.4c5.5-.2 10.9 1 15.8 3.2 5.8 2.5 11.5 5.3 16.5 9.2 2.1 1.6 4.2 3.3 6.2 5 2.4 2 4.5 4.4 6.3 7 2.1 3 3.4 6.5 4.9 9.8l.6 1.5c-.1.1-.2.2-.3.2-.1-.2-.1-.4-.2-.5-1-1.9-2.1-3.7-3-5.6-1.9-4.1-4.4-7.7-7.7-10.6-5-4.5-10.2-8.6-16.3-11.5-3.7-1.8-7.2-4.1-11.4-5-3.5-.8-6.9-1.9-10.6-1.7-.6 0-1.3 0-1.9-.1-.3 0-.6-.3-.9-.5.2-.3.3-.6.5-.8l2.5-1.8c1.9-1.4 3.7-2.9 5.6-4.4l2.7-2.1c0-.1 0-.2-.1-.3-1-.2-2.1-.6-3.1-.6-1.1-.1-2 .3-2.8 1.2-1.4 1.6-2.9 3-4.3 4.4l-5.4 5.4-.5.6zm61.2 26.3c2.1-2.4 4-4.8 6-7.2 2.2-2.7 4.4-5.4 7.1-7.7 3.8-3.2 7.8-6 12.4-8 6-2.6 12.2-4.6 18.5-6.4l.5-.2c-.3-.4-.6-.9-.9-1.2-1.4-1.2-2.7-2.4-4.1-3.4-2.9-2-5.8-3.8-8.8-5.7-1.5-.9-3-1.8-4.6-2.7-1.8-1-3.7-2-5.4-2.9l-8.8 4.7c-.2.1-.4.6-.4.9l.1 2.7c.1 2.3.5 4.6 1.7 6.6.7 1.3 1.6 2.4 2.4 3.6.2.3.2.7.2 1-.7-.1-.6.5-.7.8l-6.1 10c-2.2 3.7-4.4 7.4-6.5 11.1-1 1.4-1.8 2.7-2.6 4zm-18.7-25c5.3 9 10.6 17.9 14.8 27.5.6-2 1-3.9 1.8-5.6 1.5-3.4 3.2-6.7 5-9.9l4.6-8.3c.4-.8.6-1.8.5-2.7-.3-2.6-.8-5.2-1.2-7.8-.2-1.1-.2-1.1-1.2-.7-2.7 1.1-5.4 1.9-8.3 1.3-3.6-.7-7.2-1.6-10.2-3.9-.1-.1-.3-.1-.5-.2-.9 4-2.3 7.5-5.3 10.3zm46-17.9l.3.3c3.3 2.1 6.7 4.2 10 6.4 1.5 1 3 2 4.4 3.2 1 .8 2 1.8 2.8 2.8.7.8.4 1.6-.7 1.9l-1 .2c-5.5 1.9-11 3.6-16.4 5.8-6.8 2.7-12.5 6.9-17.3 12.4-2.1 2.4-4.1 5-6.2 7.5-1.7 2-3.1 4.1-4.2 6.4-.5 1.1-.9 2.3-.7 3.8.5-.2 1.1-.3 1.3-.6 1-1.7 1.9-3.5 3-5.3 1-1.7 1.9-3.5 3.2-5 2.3-2.6 4.8-5 7.3-7.4 5.3-5.2 11.7-8.8 18.6-11.5 3.4-1.3 7-2.2 10.5-3.4 3-1 6.1-1.5 9.3-1.7 1.2-.1 2.3-.1 3.7-.2-.5-.6-.8-1.2-1.2-1.6-2.7-2.5-5.3-5.2-8.3-7.4-4-3.1-8.2-5.9-12.3-8.9-1.1-.8-2-.9-3 .1-1 .9-2 1.5-3.1 2.2zm-50.6-80.9c-.3 2.3-.4 4.8-.8 7.1-1.5 8.1-5.7 14.8-11 21-.3.4-.8.6-1.2.9-.1-.5-.4-1-.4-1.6l.1-5-.1-1.1c-1.3 2.3-2.4 4.6-3.4 7-.3.7-.5 1.5-.6 2.2-.2 2.2-.5 4.3-.6 6.5-.1 1.7 0 3.5 0 5.3h.3l.4-.5c1.5-1.7 2.7-3.6 3.9-5.6 1.6-2.7 3.6-5.2 5.5-7.7 3.3-4.3 6.6-8.5 9.9-12.7l7.3-8.7c.2-.2.4-.5.6-.8-1.1-.6-2.1-1.2-3-1.8-2.5-1.4-5.3-2.2-6.9-4.5zm8 34.4l-.3.1-.1 1.3c-.7 6.5-6 10.2-12.3 8.6-3.4-.9-7-4.9-5.7-9.6l.6-1.8c-.5.3-.9.7-1.1 1.1l-1.6 2.5c-1.9 2.8-3.8 5.6-5.8 8.4-.9 1.2-.2 2.1-.1 3.2.1 0 .2.1.2.1 1.7-1.8 3.3-3.5 4.9-5.2.4.2.8.5 1.3.7 2.1.9 4.2 1.9 6.4 2.6 4.1 1.2 8.2 1.2 12.1-1 1-.6 2.1-1 3.1-1.5s1.9-1 2.8-1.4c-1.4-2.8-2.9-5.5-4.4-8.1zm20.2-.4l-.1-.2c-.8.2-1.6.4-2.5.6-1 .2-1.7.7-2.4 1.5-.8 1.1-1.8 2.1-2.7 3.1-3 3.1-6.1 6.1-9.2 9.1-2.1 2.1-4.2 4.3-6.4 6.4l-6.3 6.3-7.8 8.4c-.4.4-.5.7 0 1.2l1.5 1.7c1.4-1.3 2.8-2.5 4-3.9 2.2-2.4 4.4-4.9 6.5-7.3 7.7-9.1 15.9-17.8 24.5-26 .4-.3.6-.7.9-.9zm-37-3.1c.3-.1.4-.1.5-.2 1.3-.7 2.5-1.3 3.7-2 .3-.2.6-.4.8-.6.9-1.1 1.7-2.1 2.5-3.2 4.3-5.5 8.7-10.9 13-16.3.6-.7 1.1-1.4 1.6-2.1.2-.3.3-.9.1-1-.5-.5-1.1-.9-1.7-1.3-.2.3-.3.4-.4.6-1.6 3-3.7 5.5-5.9 8.1l-10.4 12.7c-1.2 1.7-2.4 3.4-3.8 5.3zm27.3-27.8l-.2.2 1.4 2.1c2.8 3.6 5.1 7.6 7 11.7 1.5 3.4 3.2 6.8 5.1 10l.4.7c.1-.7 0-1.3-.1-1.9-.7-3-1.3-6.1-3-8.8l-2.6-5.4c-1.4-2.5-3.1-4.7-5.2-6.6-.7-.7-1.8-1.3-2.8-2zm-32.5 53.7h.3c1.3-2.7 2.6-5.4 3.9-8.2-2.2.2-4.4.4-6.7.7.8 2.5 1.6 5 2.5 7.5zm11-24c-1.1 0-2 .9-2 2 0 1.2 1 2.2 2.1 2.2s2-.9 2-2.1c0-1.1-1-2.1-2.1-2.1zm44.5 4.6c.9 0 1.9-.7 1.9-1.4 0-1-1.4-2.6-2.2-2.6-.9 0-1.6.9-1.7 1.9 0 1.2.8 2.1 2 2.1zm7.8 8.2c1.3-.6 2.5-1.2 3.7-1.7.1 0 .2-.2.2-.3l-.6-3.3c-.9.9-1.7 2-2.7 2.7-.9.7-.9 1.4-.6 2.6zm-45.5-6.5c.6-.2 1.2-.2 1.4-.5.3-.4.4-1 .3-1.4-.1-.3-.6-.6-1-1-.2 1-.4 1.7-.7 2.9zm50 19.5v-4.2 4.2zm5.2 55.9c1.1.4 2.1.7 3 1 1.3.5 1.7 1.3 1 2.5-2.1 3.4-4.3 6.8-6.5 10.1-.4.6-1.1 1.1-1.7 1.6l-.3-.2c.1-.4.1-.8.3-1.2.8-2.8 1.6-5.6 2.5-8.4.2-.8 0-1.3-.8-1.5l-2.6-1c-.6-.2-.7-.5-.4-1 .2-.6.4-1.2.7-1.8l5.1-8.4c.2-.3.5-.7.8-.9.2-.2.6-.2.9-.3.1.3.3.6.2.9-.4 1.7-.8 3.4-1.3 5.2-.3 1.2-.6 2.3-.9 3.4zm3.6 2.6c-.4-.3-.8-.6-1.2-.8l-2.5-.9c-.5-.2-.9-.5-.7-1.1l1.5-5.5c.2-.6.3-1.3.4-1.9-.1 0-.2-.1-.2-.1-1.8 3.3-4.3 6.3-5.7 10 1.1.4 2.1.7 3.1 1 .7.2 1.1.6 1.1 1.3 0 .5 0 1-.1 1.4-.5 1.4-1 2.7-1.6 4l-1.2 3.2c.1 0 .2.1.2.1 2.3-3.5 4.5-7.1 6.9-10.7zm-36.4-48.2c-1.3-.3-2.6-.2-3.9.1-1.2.3-2.5.2-3.7-.2-.6-.2-1.4-.3-2-.2l-7.9 1.5c-.5.1-.6.4-.3.8.5.7 1.1 1.4 1.7 2 1.6 1.3 3.4 2.4 5.5 2.7 2.2.3 4.4.4 6.6.4.9 0 1.8-.3 2.6-.7 1.3-.6 2.5-1.3 3.7-2.1 1.2-.8 2.4-1.7 3.6-2.6-2-1.4-4-1.3-5.9-1.7zm-.9-10.3c-1.7 2.1-5.7 2.5-7.9.9-.6-.4-1-1-1.6-1.5-.2-.2-.5-.2-.8-.3.1.2 0 .5.2.7 2.2 3.4 7.7 3.8 10.4.8.6-.7.9-1.5.5-2.5-.2.8-.4 1.4-.8 1.9z"/>
  </symbol>
  <!-- ENZYME -->
  <symbol id="enzyme-1" viewBox="0 0 200 200">
    <path d="M165.1 139.7c0-4-1-8-2.5-11.7-1.1-2.9-2.4-5.7-3.7-8.5-10.2-22.3-20.9-44.3-32.1-66-1.6-3-3.1-6.1-4.8-9.1-1.6-2.9-3.5-5.7-6-8-3.9-3.8-9.2-6-14.6-6.3h-2.5c-5.6.3-11 2.6-15 6.5-2.4 2.3-4.2 5-5.8 7.8-1.6 2.9-3.2 6-4.7 9-7.5 14.6-14.8 29.3-21.9 44.2-4.2 8.9-8.4 17.8-12.4 26.7-1.7 3.7-3.2 7.6-3.7 11.7-1.1 6.9.5 14.1 4.1 20 3.2 5.1 7.9 9.3 13.5 11.7 4.3 1.9 9 2.7 13.8 2.4 6.3-.3 12.4-2.6 17.7-5.9 5.9-3.6 11-8.5 15.8-13.6 4.4 4.7 9.1 9.3 14.5 12.8 5.2 3.5 11.2 6 17.5 6.5 6.8.7 13.9-1 19.7-4.8 5.1-3.4 9-8.2 11.3-13.8 1.2-3.7 1.9-7.6 1.8-11.6zm-65.1-2.6c-1.7-2-3.2-4.2-4.7-6.4-2.6-3.7-4.9-7.7-6.7-11.8-1.5-3.4-2.8-7-3.2-10.8-.4-3-.3-6.1.8-8.9 1-2.6 2.9-4.9 5.2-6.4 5.7-3.7 13.7-3.3 18.9 1.2 2.6 2.2 4.1 5.5 4.5 8.8.5 4.5-.5 9-2.1 13.1-3 7.8-7.6 14.7-12.7 21.2zm55.6 9.5c-1.5 5.2-5.1 9.8-9.9 12.4-4.2 2.4-9.3 3.2-14 2.4-6.1-.9-11.5-4.2-16.2-7.9-3.5-2.8-6.6-6-9.6-9.2 4.7-6 9.2-12.2 12.5-19 3-6 5.2-12.4 5.4-19.1.1-4.3-.7-8.6-2.7-12.4-2.6-5.1-7.3-9-12.6-10.8-5-1.8-10.6-1.9-15.6-.5-4.8 1.4-9.2 4.2-12.2 8.3-2.6 3.5-4.2 7.8-4.5 12.1-.5 6.3 1 12.5 3.4 18.3 3.5 8.4 8.7 16 14.5 23.1-2.6 3-5.4 5.8-8.4 8.3-4.7 3.9-10 7.4-16 8.7-4.9 1.1-10.1.5-14.6-1.7-5.2-2.6-9.3-7.5-10.8-13.2-1.2-4.1-.9-8.6.5-12.7 1.1-3.4 2.7-6.6 4.2-9.8 10.1-22 20.7-43.8 31.8-65.3l5-9.6c1.4-2.5 3.1-5 5.4-6.8 2.5-2 5.7-3 8.9-3 3.3 0 6.6 1.2 9.1 3.3 2.5 2.1 4.2 4.9 5.7 7.7 3.4 6.4 6.7 12.9 10 19.4 9.4 18.6 18.4 37.4 27.1 56.3 1.3 2.9 2.7 5.9 3.6 9 1.1 3.7 1.1 7.8 0 11.7z"/>
  </symbol>
  <!-- FETCH API / AJAX -->
  <symbol id="api-1" viewBox="0 0 200 200">
    <path d="M73.9 135.1c-4.6-4.5-9.1-9-13.6-13.5l-13.5-13.5-.9-.8.8-.9c1.4-1.5 2.9-3 4.4-4.5 1.4-1.4 2.9-2.9 4.3-4.4l.8-.9.9.8c2.1 1.8 4 3.7 5.8 5.6l2.4 2.4v-47.8c0-9.6 1.9-16.1 6-20.4 4-4.3 10.3-6.5 19.6-7 3.1-.2 6.1-.2 8.8-.2 11 0 19.3 1.4 24.5 4.1 4.4 2.3 7.5 5.5 9.4 9.9 1.9 4.2 2.6 9.5 2.3 16.1l-.1 1.2h-21.6l.1-1.3c.5-5.4-.3-9.3-2.3-11.7-1.4-1.7-3.4-2.6-6-2.8-1-.1-2.1-.1-3.4-.1-1.2 0-2.4 0-3.5.1-1 0-2 0-3 .1-7.8 0-11.5 3.3-12 10.6-.4 5.4-.3 11-.1 16.8.1 3 .1 6.1.1 9.3v19.6c0 .4 0 1-.1 1.7 0 .6-.1 1.4-.1 2.2l.2-.2c.2-.2.3-.3.3-.4.9-.9 1.8-1.7 2.6-2.6 1.7-1.6 3.3-3.2 4.8-4.9l.8-.9.9.8c1.5 1.4 3 2.9 4.5 4.4 1.4 1.4 2.9 2.9 4.4 4.3l.9.9-.9.9c-4.5 4.6-9 9.1-13.5 13.6l-13.5 13.5-.9.9-.6-1zm27.8 34.9c-8 0-14.6-.1-20.2-1.7-6.2-1.7-10.8-4.9-13.7-9.4-3-4.7-4.2-11-3.7-18.8l.1-1.1h21.5l-.1 1.3c-.6 9.4 1.8 13.9 7.9 14.5.7.1 1.6.1 2.6.1s2 0 3-.1l3.1-.1c5.9 0 9.5-.6 11.6-3.7 1.9-2.8 2.1-7 2.1-12.5v-44c-1.8 1.8-3.8 3.8-5.6 5.7-.7.8-1.5 1.5-2.2 2.2l-.8.8-.9-.7c-1.8-1.5-3.5-3.2-5.1-4.9-1.2-1.3-2.5-2.6-3.8-3.8l-.9-.8.9-.9c6.5-6.8 13.3-13.5 19.9-20.1 2.3-2.3 4.7-4.7 7.1-7l.9-.9.9.8c4.5 4.4 9.1 9 13.5 13.4s8.9 9 13.5 13.4l.8.8-.8.9c-2.8 3.2-5.8 6.1-8.9 8.9l-.9.8-.8-.8-2.6-2.6c-1.7-1.8-3.5-3.6-5.3-5.3v42.8c0 6.9 0 13.4-1.7 18.5-1.8 5.4-5.7 9.4-11.5 11.6-5.6 2.5-12.9 2.7-19.9 2.7z"/>
  </symbol>
  <!-- FIGMA -->
  <symbol id="figma-1" viewBox="0 0 200 200">
    <path d="M76.7 170c12.9 0 23.3-10.5 23.3-23.3v-23.3h-23.3c-12.9 0-23.3 10.5-23.3 23.3s10.4 23.3 23.3 23.3zm-23.4-70c0-12.9 10.5-23.3 23.3-23.3h23.4v46.7h-23.3c-12.9-.1-23.4-10.5-23.4-23.4zm0-46.7c0-12.8 10.5-23.3 23.4-23.3h23.3v46.7h-23.3c-12.9 0-23.4-10.5-23.4-23.4z"/>
  </symbol>
  <symbol id="figma-2" viewBox="0 0 200 200">
    <path d="M100 30h23.3c12.9 0 23.3 10.5 23.3 23.3s-10.5 23.3-23.3 23.3h-23.3v-46.6z"/>
  </symbol>
  <symbol id="figma-3" viewBox="0 0 200 200">
    <path d="M146.7 100c0 12.9-10.5 23.3-23.3 23.3s-23.4-10.4-23.4-23.3 10.5-23.3 23.3-23.3 23.4 10.4 23.4 23.3z"/>
  </symbol>
  <!-- GATSBY -->
  <symbol id="gatsby-1" viewBox="0 0 200 200">
    <path d="M100 30c-38.7 0-70 31.3-70 70s31.3 70 70 70 70-31.3 70-70-31.3-70-70-70zm-55 70.7l54.3 54.3c-29.8-.4-53.9-24.5-54.3-54.3zm67.3 52.9l-65.9-65.9c5.6-24.4 27.5-42.7 53.6-42.7 18.3 0 34.4 8.9 44.4 22.6l-7.6 6.7c-8.1-11.6-21.6-19.2-36.8-19.2-19.4 0-36 12.3-42.2 29.6l57.5 57.5c14-5.1 24.7-16.8 28.3-31.4h-23.8v-10.8h35.2c0 26.1-18.3 48-42.7 53.6z"/>
  </symbol>
  <!-- GIT -->
  <symbol id="git-1" viewBox="0 0 200 200">
    <path d="M167.4 93.8l-61.1-61.1c-3.5-3.5-9.2-3.5-12.8 0l-12.7 12.6 16.1 16.1c3.7-1.3 8-.4 11 2.6s3.8 7.3 2.5 11.1l15.6 15.5c3.8-1.3 8.1-.5 11.1 2.5 4.2 4.2 4.2 11 0 15.2-4.2 4.2-11 4.2-15.2 0-3.2-3.2-3.9-7.8-2.3-11.7l-14.5-14.5v38.1c1 .5 2 1.2 2.8 2 4.2 4.2 4.2 11 0 15.2-4.2 4.2-11 4.2-15.2 0-4.2-4.2-4.2-11 0-15.2 1-1 2.2-1.8 3.5-2.3v-38.4c-1.3-.5-2.5-1.3-3.5-2.3-3.2-3.2-3.9-7.8-2.3-11.7l-15.8-15.9-42 41.9c-3.5 3.5-3.5 9.2 0 12.8l61.1 61.1c3.5 3.5 9.2 3.5 12.8 0l60.8-60.8c3.6-3.6 3.6-9.3.1-12.8z"/>
  </symbol>
  <!-- GRAPHQL -->
  <symbol id="graphql-1" viewBox="0 0 200 200">
    <path d="M156 118c-1.1-.6-2.2-1-3.3-1.3v-33.3c1.1-.3 2.3-.7 3.3-1.3 6-3.5 8-11.1 4.6-17.1-3.5-6-11.1-8-17.1-4.6-1.1.6-2 1.4-2.8 2.2l-28.7-16.6c.3-1.1.5-2.3.5-3.6 0-6.9-5.6-12.5-12.5-12.5s-12.5 5.6-12.5 12.5c0 1.2.2 2.4.5 3.5l-28.8 16.7c-.8-.9-1.7-1.6-2.8-2.2-6-3.4-13.6-1.4-17 4.6-3.4 6-1.4 13.6 4.6 17.1 1.1.6 2.2 1.1 3.3 1.3v33.3c-1.1.3-2.2.7-3.3 1.3-6 3.5-8 11.1-4.6 17 3.4 6 11 8 17 4.6 1.1-.6 2-1.4 2.8-2.2l28.8 16.6c-.3 1.1-.5 2.3-.5 3.5 0 6.9 5.6 12.5 12.5 12.5s12.5-5.6 12.5-12.5c0-1.4-.2-2.7-.6-3.9l28.6-16.5c.9 1 1.9 1.8 3.1 2.5 6 3.4 13.6 1.4 17-4.6 3.5-6 1.4-13.6-4.6-17zm-102.3-1.2l-.5-.1v-33.4c3.2-.8 6-2.8 7.8-5.9 1.8-3.1 2.1-6.5 1.2-9.7l28.8-16.5.4.4-37.7 65.2zm55.5 32.3c-2.3-2.5-5.6-4.1-9.2-4.1-3.5 0-6.7 1.5-9 3.8l-28.8-16.6.1-.5h75.3l.2.8-28.6 16.6zm29.8-26.6c-.6 1.1-1 2.2-1.3 3.3h-75.4c-.3-1.1-.7-2.2-1.3-3.3-.6-1.1-1.4-2-2.2-2.8l37.7-65.3c1.1.3 2.3.5 3.5.5 1.2 0 2.4-.2 3.5-.5l37.7 65.3c-.9.8-1.6 1.8-2.2 2.8zm7.8-5.9l-.5.1-37.7-65.3.3-.3 28.9 16.7c-.9 3.1-.6 6.6 1.2 9.7 1.8 3.1 4.6 5.1 7.8 5.9v33.2z"/>
  </symbol>
  <!-- GULP -->
  <symbol id="gulp-1" viewBox="0 0 200 200">
    <path d="M99.7 145.3c-9.4 0-16.6-1.4-20.1-2.2-2.4-.6-4.3-1.2-5.7-1.8l4.6 7.9 1.8 24.8c0 2.8 8.8 5 19.7 5s19.7-2.3 19.7-5l1.4-25.1 4.4-7.7c-1.5.6-3.4 1.2-5.8 1.8-3.4.8-10.7 2.3-20 2.3zm26-80.7c-6.9 1-16 1.5-25.7 1.5s-18.8-.5-25.7-1.5c-3.4-.5-6.1-1-8-1.7-.5-.2-1.2-.4-2-.8l4.3 39.2c.2-.7.4-1.4.7-2 .5-1.4 1.1-2.7 1.7-4 .7-1.3 1.4-2.6 2.1-3.7.8-1.2 1.6-2.2 2.5-3.2.9-1 1.8-1.8 2.7-2.5.9-.7 1.8-1.3 2.8-1.7.9-.4 1.9-.6 2.8-.6 1.1 0 2.1.3 3.1.9 1 .6 1.9 1.5 2.8 2.8.2.3.3.6.4.9.1.3.1.6.1.8 0 .6-.1 1.1-.4 1.5-.3.4-.6.5-1.1.5-.4 0-.7-.2-1-.6-.3-.4-.7-1-1.1-1.7-.4-.7-.8-1.1-1.2-1.4-.4-.3-.9-.4-1.5-.4-.8 0-1.7.3-2.6 1-.9.7-1.8 1.6-2.7 2.7-.9 1.1-1.8 2.4-2.6 3.8s-1.6 2.9-2.2 4.4c-.6 1.5-1.1 3-1.5 4.4-.4 1.5-.6 2.8-.6 3.9 0 .4 0 .8.1 1.2.1.4.2.8.3 1.1.1.3.3.6.6.8.3.2.6.3 1 .3s.9-.1 1.5-.4c.5-.3 1.1-.7 1.7-1.1.6-.5 1.2-1 1.8-1.6l1.7-1.8c.5-.6 1-1.2 1.4-1.7.4-.6.7-1 .9-1.5l1.6-4.9c.2-.5.5-.9.8-1.1.3-.2.6-.3 1-.3.2 0 .3 0 .5.1s.3.1.4.3c.1.1.2.3.3.5.1.2.1.4.1.7 0 .7-.1 1.3-.2 1.9s-.3 1.1-.4 1.7l-.6 1.7-.6 1.7c0 .1-.1.3-.3.7-.1.4-.3.8-.4 1.4l-.6 1.8-.6 2.1-.6 2.1c-.2.7-.4 1.3-.5 1.8-.2.6-.3 1-.4 1.4l-.2.7-.3.7c-.1.3-.3.5-.5.8l-.6.6c-.2.2-.4.2-.6.2-.4 0-.6-.1-.8-.4-.2-.2-.3-.7-.3-1.4v-.6c0-.2.1-.6.3-1.2.2-.6.4-1.3.6-2.1l.7-2.4c.3-.8.5-1.6.7-2.2-.6.7-1.3 1.4-2 2.1-.7.7-1.5 1.3-2.2 1.8-.8.5-1.5 1-2.3 1.3-.8.3-1.5.5-2.2.5-.8 0-1.5-.2-2.1-.5l-.3-.2 2.4 24.9c.6 1.5 12.2 5.4 27.6 5.4 15.3 0 27-3.8 27.6-5.4l3.4-29.6c-.3.3-.6.5-.8.8-1 .9-1.9 1.7-2.8 2.3-.9.7-1.7 1.2-2.5 1.5-.8.4-1.7.5-2.7.5-.9 0-1.6-.2-2.1-.6-.5-.4-.7-.9-.7-1.6v-.4c0-.4.2-.9.5-1.4.3-.5.7-1.1 1.1-1.7.4-.6.9-1.2 1.4-1.8.5-.6 1-1.2 1.4-1.7.4-.5.8-1 1.1-1.5.3-.4.4-.8.4-1.1 0-.2-.1-.3-.2-.4-.1-.1-.3-.1-.6-.1-.5 0-.9.1-1.4.4-.5.2-1 .6-1.5 1s-1 .9-1.4 1.4c-.5.5-.9 1.1-1.3 1.6-.4.6-.8 1.1-1.1 1.7-.3.6-.6 1.1-.8 1.6l-.3.6-.4.9c-.2.3-.3.7-.5 1.1-.2.4-.3.7-.5 1l-.4.9-.2.5c-.1.1-.2.4-.3.7-.1.3-.3.7-.5 1.2s-.4.9-.6 1.5c-.2.5-.4 1-.5 1.4-.2.5-.3.9-.4 1.2-.1.3-.2.6-.2.7-.1.4-.3.7-.4 1-.2.3-.3.6-.5.8-.2.2-.4.4-.7.6-.3.1-.6.2-.9.2-.4 0-.8-.1-1-.3-.3-.2-.4-.6-.4-1.1 0-.3 0-.6.1-.8l.3-.9c.1-.3.2-.6.3-.8l.3-.8c.6-1.4 1.3-2.8 1.9-4.1.7-1.4 1.3-2.8 1.9-4.1.1-.3.2-.6.4-.8l-.1.1c-.8.7-1.5 1.4-2.3 1.9-.8.6-1.5 1-2.2 1.3-.7.3-1.5.5-2.2.5-.5 0-.9-.1-1.2-.2-.3-.2-.6-.4-.8-.6-.2-.3-.3-.6-.4-.9 0-.1 0-.3-.1-.4l-.6.5c-.7.5-1.4.9-2.1 1.2-.7.3-1.3.5-1.9.5-.6 0-1-.2-1.4-.6-.3-.4-.5-1-.5-1.9 0-.6.1-1.4.3-2.2-.3.5-.7 1.1-1.1 1.6-.5.6-1 1.1-1.6 1.5-.6.5-1.2.8-2 1.1-.7.3-1.5.4-2.4.4-.4 0-.8 0-1.1-.1-.4-.1-.7-.3-.9-.5-.3-.2-.5-.5-.6-.9-.2-.4-.2-.9-.2-1.5 0 0 0-.2.1-.6 0-.4.2-1 .4-1.9.2-.9.6-2 1.2-3.4.5-1.4 1.3-3.1 2.2-5.1.2-.5.5-.9.8-1.1.3-.2.7-.3 1-.3.2 0 .3 0 .5.1.2 0 .3.1.5.2s.3.2.4.4c.1.2.1.3.1.5 0 .1 0 .3-.1.4-.1.2-.2.5-.4.9s-.4.8-.7 1.3c-.3.5-.5 1-.8 1.6-.3.6-.5 1.1-.8 1.8-.2.6-.5 1.2-.6 1.8-.2.6-.3 1.2-.3 1.8 0 .2.1.5.2.7.1.2.3.3.6.3.8 0 1.5-.2 2.2-.7.7-.5 1.3-1.1 1.9-1.8.6-.7 1.1-1.5 1.6-2.4.5-.8.9-1.6 1.2-2.3l.6-1.5c.2-.5.4-1 .5-1.5.2-.5.4-.8.7-1.1.3-.3.6-.5 1-.5s.8.2 1 .5c.2.3.4.7.4 1.1 0 .2-.1.6-.2 1-.2.4-.4.9-.6 1.5-.2.6-.5 1.2-.8 1.8l-.8 1.9c-.2.7-.4 1.3-.6 1.9-.2.6-.2 1.2-.2 1.7s.3.7.8.7c.4 0 .8-.1 1.3-.4.5-.2 1.1-.6 1.7-1 .1-.1.3-.2.4-.4.2-.7.4-1.3.6-1.9l1.2-3.2c.4-1.1.8-2 1.2-2.9l5.3-13.3c.2-.5.5-.9.8-1.1.4-.2.7-.3 1.1-.3.4 0 .7.1 1 .4.3.2.4.6.4 1.1 0 .2 0 .5-.1.8-.1.3-.2.6-.4.9-.3.6-.6 1.4-1 2.4-.4.9-.8 2-1.3 3.1s-.9 2.2-1.4 3.4c-.5 1.2-1 2.4-1.4 3.5-.5 1.1-.9 2.2-1.3 3.2s-.7 1.9-1 2.6c-.1.3-.3.7-.4 1.1-.1.4-.2.8-.2 1.1 0 .2 0 .4.1.5.1.1.2.2.4.2s.5-.1.9-.3c.4-.2.8-.4 1.2-.7.4-.3.9-.6 1.3-1l1.4-1.1c.5-.4.9-.8 1.3-1.2l1.1-1.1.3-.2c.2-.6.4-1.2.5-1.7l.4-1.1c.2-.5.3-.9.6-1.3.2-.4.4-.8.7-1.1.3-.3.5-.5.8-.5.5 0 .8.1 1 .3.2.2.3.5.3.9v.4l-.1.6-.1.6c0 .2-.1.3-.1.4.4-.5.9-.9 1.4-1.4.5-.5 1-.9 1.6-1.3.5-.4 1.1-.7 1.6-.9.6-.2 1.1-.4 1.7-.4.4 0 .8.1 1.1.2.4.1.7.3 1 .5.3.2.5.5.7.8.2.3.3.7.3 1.1 0 .6-.1 1.2-.4 1.8-.3.6-.6 1.3-1.1 1.9-.4.6-.9 1.3-1.4 1.9-.5.6-1 1.2-1.4 1.7-.4.5-.8.9-1.1 1.3-.3.4-.5.6-.5.7 0 .2.1.3.2.4.1.1.3.2.5.2s.5-.1.9-.3c.4-.2.9-.6 1.6-1.1s1.6-1.3 2.6-2.2c.7-.6 1.6-1.4 2.5-2.2l4.6-42.7c-.7.4-1.5.7-2 .8-2.4.4-5.1 1-8.5 1.5zm10.4-5.2c0 2.8-16.2 5-36.1 5s-36.1-2.2-36.1-5 16.2-5 36.1-5c2.8 0 5.6 0 8.2.1l3.9-15.2 19.2-20.2c.4-.4 1.8 0 3.1 1.1s2.1 2.5 1.7 2.9l-18 19-3.1 12.7c12.4.8 21.1 2.6 21.1 4.6z"/>
  </symbol>
  <!-- HTML -->
  <symbol id="html-1" viewBox="0 0 200 200">
    <path d="M81.5 110.1l1.1 12.3 17.5 4.6v-24.5h-18.6v7.6zm-3.2-39.1l1.4 15.9h20.5v-15.9h-21.9zm1.3 15.9h20.5v-15.9h-21.8l1.3 15.9zm-41.3-56.9l11.2 125.8 50.4 14.2 50.6-14.2 11.2-125.8h-123.4zm102.6 117.8l-40.7 11.2v-15.9l-32-8.7-1.9-24.3h15.3l1.1 12.3 17.5 4.6v-24.5h-34.8l-4.1-46.8h38.8v-15.6h50.3l-9.5 107.7zm-62.6-76.8l1.4 15.9h20.5v-15.9h-21.9zm0 0l1.4 15.9h20.5v-15.9h-21.9zm3.2 31.5v7.7l1.1 12.3 17.5 4.6v-24.5h-18.6z"/>
  </symbol>
  <symbol id="html-2" viewBox="0 0 200 200">
    <path d="M117.1 122.4l-17 4.6v-24.5h18.9l-1.9 19.9zm-17-82.3v15.6h38.6l-1.4 15.3h-37.2v15.9h35.9l-4.4 47.6-31.4 8.7v15.9l40.7-11.2 9.6-107.7h-50.4z"/>
  </symbol>
  <symbol id="html-3" viewBox="0 0 200 200">
    <path d="M100.1 86.9h-20.5l-1.3-15.9h21.9v-15.3h-38.9l4.1 46.8h34.7v-15.6zm0 40.1l-17.5-4.6-1.1-12.3h-15.3l1.9 24.3 32 8.7v-16.1z"/>
  </symbol>
  <!-- ILLUSTRATOR -->
  <symbol id="illustrator-1" viewBox="0 0 200 200">
    <path d="M69.4 121.3l-6.6 25c-.2.7-.4.8-1.3.8h-12.2c-.8 0-1-.3-.8-1.3l23.7-82.8c.4-1.5.7-2.8.8-6.9 0-.6.3-.8.7-.8h17.5c.6 0 .8.2 1 .8l26.5 89.9c.2.7 0 1.1-.7 1.1h-13.8c-.7 0-1.1-.2-1.3-.7l-6.9-25.1h-26.6zm23.2-13.5c-2.3-9.2-7.8-29.4-9.9-39.2h-.2c-1.8 9.8-6.2 26.3-9.7 39.2h19.8zm37.5-46.4c0-5.3 3.8-8.5 8.5-8.5 5.1 0 8.5 3.4 8.5 8.5 0 5.5-3.6 8.5-8.7 8.5-4.8 0-8.3-3-8.3-8.5zm1 18.9c0-.7.3-1 1-1h13.1c.7 0 1 .3 1 1v65.8c0 .7-.2 1-1 1h-12.9c-.8 0-1.1-.4-1.1-1.1l-.1-65.7z"/>
  </symbol>
  <!-- JEST -->
  <symbol id="jest-1" viewBox="0 0 200 200">
    <path d="M159.8 98.9c0-8.3-5.6-15.5-13.6-17.6l17.4-51.3h-86.3l17.5 51.6c-7.8 2.2-13.1 9.3-13.1 17.4 0 6.1 3 11.5 7.7 14.8-1.9 2.6-4 5.1-6.3 7.3-4.3 4.1-9.4 7.4-14.9 9.6-4.9-3.3-7-9.1-5.1-14.3 9.6-3 14.9-13.1 11.9-22.7-2.3-7.6-9.3-12.7-17.3-12.8-10 0-18.1 8.1-18.2 18.2 0 4.9 2 9.5 5.3 12.7l-.9 1.7c-2.7 5.6-5.8 11.9-7 19-2.4 14.2 1.5 25.6 10.8 32 5 3.5 11 5.4 17.2 5.4 10.7 0 21.5-5.3 31.9-10.5 7.5-3.7 15.2-7.5 22.7-9.4 2.8-.7 5.7-1.1 8.8-1.5 6.2-.9 12.7-1.8 18.5-5.2 6.7-3.8 11.4-10.4 12.7-18 1-5.8 0-11.6-2.6-16.7 1.9-2.8 2.9-6.1 2.9-9.7zm-7.9 0c0 5.6-4.6 10.2-10.2 10.2s-10.2-4.6-10.2-10.3c0-3.1 1.4-6 3.9-8 .3-.2.7-.5 1.1-.7l.5-.3h.1c.2-.1.4-.2.6-.2.2-.1.4-.2.6-.2h.1c.2 0 .3-.1.5-.2h.2l.6-.1.6-.1h2.5c.3 0 .6.1 1 .2 4.7.7 8.1 4.9 8.1 9.7zm-63.3-60.8h63.8l-14.6 43.2c-.6.1-1.2.3-1.8.5l-15.4-31.4-15.6 31.2c-.6-.2-1.3-.3-1.9-.4l-14.5-43.1zm29 57.3c-.7-3.7-2.7-7.1-5.5-9.7l8.4-16.9 8.5 17.3c-2.5 2.5-4.3 5.7-5.1 9.4h-6.3v-.1zm-20.3-6.4l.6-.1h.1c.2 0 .3 0 .5-.1h2.8c.2 0 .3 0 .4.1h.2l.6.1c.2 0 .3.1.5.2h.2c.1 0 .3.1.4.2h.1l.5.2c.2.1.4.2.5.3l.5.3h.1c.2.1.3.2.4.3l1.4 1.2c1.8 1.9 2.8 4.4 2.8 7.1-.2 5.6-4.9 10.1-10.6 9.9-5.4-.2-9.7-4.5-9.9-9.9.1-4.6 3.3-8.7 7.9-9.8zm-39.9-.3c5.6 0 10.2 4.6 10.2 10.2s-4.6 10.2-10.2 10.2-10.2-4.6-10.2-10.2 4.5-10.2 10.2-10.2zm94.3 35.2c-.9 5.3-4.2 9.8-8.8 12.4-4.4 2.6-9.9 3.4-15.6 4.2-3.2.4-6.4 1-9.6 1.7-8.4 2.1-16.5 6.1-24.4 10-10.1 5-19.5 9.7-28.3 9.7-4.5 0-8.9-1.4-12.6-4-8.9-6.2-8.5-17.7-7.4-24 1-5.9 3.7-11.5 6.3-16.8.2-.3.3-.6.4-.9.9.3 1.8.6 2.8.7-1.5 8.6 2.8 17.5 11.4 21.8l1.5.8 1.7-.6c7.1-2.5 13.7-6.6 19.5-12.1 3.2-3 6-6.3 8.4-10 .9.2 1.9.2 2.8.2 8.3 0 15.5-5.6 17.5-13.6h6.8c2.1 8 9.3 13.6 17.6 13.6 3.4 0 6.5-.9 9.2-2.5 1 3 1.3 6.2.8 9.4z"/>
  </symbol>
  <!-- JAVASCRIPT -->
  <symbol id="javascript-1" viewBox="0 0 200 200">
    <path d="M49.5 156.1l-11-126.1h123l-11 125.3-50.5 14.7-50.5-13.9zm91-8.2l9.8-107.9h-50.3v5.8l-29 .2-5 56.7h34v24.2l-17.2-4.5-1.1-12.2h-15.8l2.4 24.5 31.6 8.9v15.7l40.6-11.4zm-55-84.8l14.5-.6v24.4h-16.9l2.4-23.8z"/>
  </symbol>
  <symbol id="javascript-2" viewBox="0 0 200 200">
    <path d="M100 126.9v-24.2h18.8l-2.1 19.6-16.7 4.6zm0 32.4l40.5-11.5 9.8-107.8h-50.3v5.8l33 .2 3 33.5h-16l-1.6-15.8-18.4-1.2v24.4l36 .7-4.5 46.7-31.5 9.2v15.8z"/>
  </symbol>
  <symbol id="javascript-3" viewBox="0 0 200 200">
    <path d="M100 45.8v16.7l-14.5.6-2.4 23.8h16.9v15.8h-34.1l5.1-56.7 29-.2zm-31.6 88.9l31.6 8.9v-16.7l-17.2-4.5-1.1-12.2h-15.8l2.5 24.5z"/>
  </symbol>
  <!-- JS -->
  <symbol id="js-1" viewBox="0 0 200 200">
    <path d="M149.049 91.674c-7.186.57-13.212 3.156-17.699 7.605-4.62 4.582-6.825 10.171-6.825 17.262 0 10.609 4.353 18.023 14.068 23.898 2.472 1.483 5.837 3.099 11.654 5.608 7.928 3.403 10.875 5.019 12.757 7.034 2.319 2.491 2.966 6.464 1.502 9.506-.285.589-1.027 1.578-1.692 2.243-2.244 2.263-5.78 3.46-10.171 3.46-7.415 0-12.947-3.041-17.396-9.619-.608-.875-1.16-1.597-1.236-1.597-.171 0-14.638 8.346-14.943 8.631-.19.171-.038.57.704 1.787 5.779 9.734 14.81 15.437 27.015 17.072 3.194.438 9.183.418 12.243 0 7.681-1.083 13.442-3.631 17.909-7.966 4.753-4.581 7.091-10.513 7.091-17.946 0-4.753-.779-8.46-2.547-12.13-1.217-2.509-2.434-4.201-4.525-6.33-4.011-4.069-9.201-7.149-19.563-11.597-7.832-3.365-10.456-4.81-12.186-6.654-1.654-1.768-2.357-3.841-2.205-6.426.133-2.053.703-3.441 1.958-4.791 1.806-1.958 3.897-2.776 7.129-2.757 3.669 0 6.046.951 8.46 3.384.856.837 1.959 2.187 2.472 3.004.589.932 1.026 1.445 1.179 1.388.494-.209 14.315-9.145 14.315-9.278 0-.076-.703-1.178-1.559-2.471-1.825-2.738-5.114-6.16-7.376-7.662-4.183-2.775-8.65-4.201-14.544-4.638-2.89-.229-3.27-.229-5.989-.02ZM89.81 159.83l-.418 1.578c-.552 2.073-1.198 3.308-2.339 4.449-1.597 1.597-3.65 2.262-7.072 2.281-4.886.019-7.814-2.053-11.217-7.87-.551-.913-1.045-1.654-1.102-1.635-.076.038-3.518 2.11-7.643 4.6l-7.51 4.563.57 1.141c3.404 6.787 9.297 11.92 16.389 14.277 7.49 2.491 17.11 2.263 24.163-.57 8.46-3.422 13.422-10.494 14.734-21.008.114-1.064.19-12.946.19-35.304V92.625H89.943l-.133 67.205Z"/>
  </symbol>
  <!-- MUI -->
  <symbol id="mui-1" viewBox="0 0 200 200">
    <path d="M30 44.44v60.609l17.5 10.109V74.745l35 20.212 35-20.212v20.212l-35 20.201v20.207l35 20.2 52.5-30.304V84.848l-17.5 10.11v20.2l-35 20.207-17.5-10.104 35-20.212V44.44L82.5 74.745 30 44.44Zm140 0-17.5 10.092v20.213L170 64.64v-20.2Z"/>
  </symbol>
  <!-- NEXT.JS -->
  <symbol id="nextjs-1" viewBox="0 0 200 200">
    <path d="M95.415 30.038c-.3.027-1.259.123-2.12.191-19.885 1.793-38.511 12.52-50.308 29.009-6.569 9.167-10.77 19.567-12.358 30.582-.56 3.845-.629 4.98-.629 10.194 0 5.213.068 6.349.63 10.194 3.804 26.285 22.512 48.37 47.884 56.552 4.544 1.465 9.334 2.463 14.78 3.066 2.121.232 11.291.232 13.412 0 9.402-1.04 17.366-3.367 25.222-7.376 1.204-.615 1.437-.78 1.272-.917-.109-.082-5.241-6.964-11.399-15.284l-11.195-15.12-14.027-20.757C88.86 98.96 82.51 89.628 82.456 89.628c-.055-.014-.11 9.209-.137 20.47-.041 19.718-.055 20.511-.301 20.977-.356.67-.63.944-1.205 1.245-.438.219-.82.26-2.887.26h-2.368l-.63-.397a2.558 2.558 0 0 1-.916-.999l-.288-.616.028-27.435.04-27.448.425-.534c.219-.287.684-.656 1.013-.834.56-.274.78-.301 3.147-.301 2.792 0 3.257.109 3.983.903.205.219 7.8 11.658 16.887 25.437a63421.018 63421.018 0 0 0 27.617 41.829l11.085 16.79.561-.37c4.968-3.229 10.223-7.827 14.383-12.616 8.855-10.166 14.562-22.563 16.477-35.781.562-3.845.63-4.981.63-10.194 0-5.214-.068-6.35-.63-10.194-3.804-26.286-22.512-48.37-47.884-56.553-4.475-1.45-9.238-2.45-14.575-3.051-1.314-.137-10.36-.288-11.496-.178Zm28.657 42.336c.657.328 1.191.957 1.383 1.614.109.356.136 7.964.109 25.109l-.041 24.602-4.338-6.65-4.352-6.65V92.515c0-11.562.055-18.062.137-18.376.219-.766.698-1.369 1.355-1.724.561-.288.766-.315 2.914-.315 2.026 0 2.382.027 2.833.274Z"/>
  </symbol>
  <!-- NODE.JS -->
  <symbol id="nodejs-1" viewBox="0 0 200 200">
    <path d="M100 170c-1.9 0-3.7-.5-5.4-1.4l-17.1-10.2c-2.6-1.4-1.3-1.9-.5-2.2 3.5-1.2 4.1-1.4 7.7-3.5.4-.3.9-.1 1.3.1l13.1 7.8c.5.3 1.2.3 1.5 0l51.4-29.6c.5-.3.8-.8.8-1.4v-59.3c0-.6-.3-1.2-.8-1.4l-51.3-29.6c-.5-.3-1.2-.3-1.5 0l-51.4 29.6c-.5.3-.8.9-.8 1.4v59.3c0 .5.3 1.2.8 1.4l14 8.1c7.6 3.9 12.3-.6 12.3-5.1v-58.5c0-.8.6-1.5 1.5-1.5h6.6c.8 0 1.5.6 1.5 1.5v58.5c0 10.2-5.5 16.1-15.2 16.1-3 0-5.3 0-11.8-3.2l-13.5-7.7c-3.3-1.9-5.4-5.5-5.4-9.4v-59.3c0-3.9 2.1-7.5 5.4-9.4l51.3-29.7c3.2-1.8 7.6-1.8 10.8 0l51.3 29.7c3.3 1.9 5.4 5.5 5.4 9.4v59.3c0 3.9-2.1 7.5-5.4 9.4l-51.3 29.7c-1.6.7-3.5 1.1-5.3 1.1zm15.8-40.8c-22.5 0-27.1-10.3-27.1-19 0-.8.6-1.5 1.5-1.5h6.7c.8 0 1.4.5 1.4 1.3 1 6.8 4 10.2 17.6 10.2 10.8 0 15.4-2.4 15.4-8.2 0-3.3-1.3-5.8-18.1-7.5-14-1.4-22.8-4.5-22.8-15.7 0-10.4 8.7-16.6 23.4-16.6 16.5 0 24.6 5.7 25.6 18 0 .4-.1.8-.4 1.2-.3.3-.6.5-1 .5h-6.7c-.6 0-1.3-.5-1.4-1.2-1.5-7.1-5.5-9.4-16.1-9.4-11.8 0-13.2 4.1-13.2 7.2 0 3.7 1.7 4.9 17.6 6.9 15.8 2.1 23.3 5 23.3 16.1-.1 11.3-9.3 17.7-25.7 17.7z"/>
  </symbol>
  <!-- NPM -->
  <symbol id="npm-1" viewBox="0 0 200 200">
    <path d="M100 110.1h-8.1v-16.6h8.1v16.6zm75-33.3v50.1h-75v8.4h-33.3v-8.4h-41.7v-50.1h150zm-108.3 8.4h-33.3v33.3h16.5v-25h8.4v24.9h8.4v-33.2zm41.7 0h-33.3v41.7h16.8v-8.4h16.5v-33.3zm58.5 0h-50.1v33.3h16.5v-25h8.4v24.9h8.4v-24.9h8.4v24.9h8.4v-33.2z"/>
  </symbol>
  <!-- P5.JS -->
  <symbol id="p5js-1" viewBox="0 0 200 200">
    <path d="M29 80.8v5.2h.2c.5-.7 1.1-1.5 1.8-2.2.8-.8 1.7-1.4 2.8-2 1.1-.6 2.3-1.1 3.7-1.5 1.4-.4 2.9-.6 4.6-.6 2.7 0 5.1.5 7.3 1.5s4.2 2.4 5.8 4.2c1.6 1.8 2.9 3.8 3.7 6.2.9 2.4 1.3 5 1.3 7.7s-.4 5.3-1.3 7.8c-.9 2.4-2.1 4.5-3.7 6.3-1.6 1.8-3.5 3.2-5.8 4.3-2.3 1.1-4.8 1.6-7.7 1.6-2.7 0-5.1-.5-7.3-1.6s-3.9-2.6-5.1-4.4h-.2v23.7h-9.1v-56.2h9zm21.8 18.6c0-1.5-.2-2.9-.7-4.3-.4-1.4-1.1-2.7-2-3.9-.9-1.1-2-2.1-3.4-2.8-1.4-.7-2.9-1.1-4.8-1.1-1.7 0-3.3.4-4.6 1.1-1.3.7-2.5 1.7-3.5 2.8-1 1.2-1.7 2.5-2.2 3.9-.5 1.5-.7 2.9-.7 4.4 0 1.5.2 2.9.7 4.3.5 1.4 1.2 2.7 2.2 3.9 1 1.1 2.1 2.1 3.5 2.8 1.4.7 2.9 1.1 4.6 1.1 1.8 0 3.4-.4 4.8-1.1 1.4-.7 2.5-1.7 3.4-2.8.9-1.1 1.5-2.4 2-3.9s.7-2.9.7-4.4zm91.2-20.4v41.5c0 2.2-.2 4.4-.5 6.4-.4 2-1.1 3.7-2.1 5.2s-2.4 2.7-4.1 3.5c-1.7.9-4 1.3-6.8 1.3-.8 0-1.6-.1-2.3-.2-.8-.1-1.4-.2-1.9-.3l.8-8c.4.1.9.2 1.3.2.5.1.9.1 1.2.1 1.1 0 2-.2 2.7-.6.7-.4 1.2-1 1.6-1.7.4-.7.6-1.6.7-2.5.1-1 .2-2 .2-3.1v-41.8h9.2zm31.9 11.8c-.8-1.1-2-2-3.4-2.8-1.5-.8-3-1.2-4.8-1.2-1.5 0-2.9.3-4.1.9-1.2.6-1.9 1.7-1.9 3.1s.7 2.5 2.1 3.1c1.4.6 3.4 1.2 6 1.8 1.4.3 2.8.7 4.2 1.2s2.7 1.2 3.9 2.1c1.2.9 2.1 1.9 2.8 3.2.7 1.3 1.1 2.8 1.1 4.6 0 2.3-.4 4.2-1.3 5.8-.9 1.6-2 2.9-3.4 3.9s-3.1 1.7-5 2.1c-1.9.4-3.9.7-5.9.7-2.9 0-5.7-.5-8.5-1.6s-5-2.6-6.9-4.6l6.2-5.8c1 1.4 2.4 2.5 4.1 3.4 1.7.9 3.5 1.3 5.5 1.3.7 0 1.4-.1 2.1-.2.7-.1 1.3-.4 1.9-.7.6-.3 1.1-.8 1.4-1.4.4-.6.5-1.3.5-2.1 0-1.6-.7-2.7-2.1-3.4-1.4-.7-3.6-1.4-6.4-2-1.4-.3-2.8-.7-4.1-1.2-1.3-.5-2.5-1.1-3.5-1.9-1-.8-1.9-1.8-2.5-3-.6-1.2-.9-2.7-.9-4.4 0-2.1.4-3.9 1.3-5.4.8-1.5 2-2.7 3.4-3.7s3-1.7 4.8-2.1c1.8-.5 3.6-.7 5.5-.7 2.7 0 5.3.5 7.9 1.4 2.6.9 4.6 2.4 6.1 4.3l-6.1 5.3zm-55.2 19.5l5.6-1.7 1.1 3.4-5.6 1.9 3.4 4.9-2.9 2.1-3.6-4.8-3.5 4.7-2.8-2.1 3.4-4.7-5.6-2 1.1-3.4 5.6 1.8v-5.8h3.8v5.7zm-19.3-17.6c-1-2.2-2.3-4-4-5.5-1.7-1.5-3.7-2.6-6-3.4-2.3-.8-4.8-1.2-7.5-1.2-1 0-2.1.1-3.3.2-1.2.1-2.3.3-3.2.5l.5-11.9h22.5v-8.4h-31.4l-.9 30.2c.8-.4 1.8-.8 2.8-1.2 1.1-.4 2.2-.7 3.3-1 1.1-.3 2.3-.5 3.4-.7 1.1-.2 2.2-.2 3.3-.2 1.5 0 3 .2 4.4.5 1.5.3 2.8.9 3.9 1.8 1.2.9 2.1 2 2.8 3.4.7 1.4 1.1 3.2 1.1 5.3 0 1.7-.3 3.2-.8 4.5-.5 1.3-1.3 2.4-2.2 3.3-.9.9-2.1 1.6-3.3 2-1.2.5-2.6.7-4 .7-2.5 0-4.7-.7-6.5-2-1.8-1.3-3.1-3.1-3.9-5.3h-.1l-6.8 6.3c1.4 2.2 3.1 4.1 5.3 5.6 3.2 2.2 7.1 3.2 11.7 3.2 2.8 0 5.4-.4 7.8-1.3 2.4-.9 4.6-2.2 6.4-3.8 1.8-1.7 3.3-3.7 4.3-6.1 1.1-2.4 1.6-5.2 1.6-8.2.2-2.7-.2-5.1-1.2-7.3z"/>
  </symbol>
  <!-- PHOTOSHOP -->
  <symbol id="photoshop-1" viewBox="0 0 200 200">
    <path d="M48.3 56.3c0-.6 1.2-1 1.8-1 5.3-.3 13.2-.4 21.5-.4 23.1 0 32.1 12.7 32.1 28.9 0 21.2-15.3 30.3-34.2 30.3-3.2 0-4.3-.2-6.5-.2v32c0 .7-.3 1-1 1h-12.7c-.7 0-1-.3-1-1v-89.6zm14.9 44.2c1.9.2 3.4.2 6.7.2 9.8 0 18.9-3.4 18.9-16.7 0-10.6-6.6-15.9-17.7-15.9-3.3 0-6.5.2-8 .3l.1 32.1zm71.6-9.9c-6.6 0-8.8 3.3-8.8 6.1 0 3 1.5 5.1 10.3 9.7 13.1 6.3 17.2 12.4 17.2 21.3 0 13.3-10.2 20.5-23.9 20.5-7.2 0-13.5-1.5-17.1-3.6-.6-.3-.7-.7-.7-1.3v-12.3c0-.8.4-1.1 1-.7 5.3 3.4 11.3 4.9 16.8 4.9 6.6 0 9.3-2.8 9.3-6.5 0-3-1.9-5.7-10.3-10-11.8-5.7-16.8-11.4-16.8-21 0-10.8 8.4-19.7 23-19.7 7.2 0 12.2 1.1 14.9 2.3.7.4.8 1.1.8 1.7v11.4c0 .7-.4 1.1-1.3.8-3.5-2.2-8.9-3.6-14.4-3.6z"/>
  </symbol>
  <!-- PHP -->
  <symbol id="php-1" viewBox="0 0 200 200">
    <path d="M65.2 80.1h-24.6l-10.6 53.7h12.6l2.7-13.9h11.9c11.3.7 23.9-8.6 23.9-24.5 0-9.3-5.3-14.6-15.9-15.3zm-9.3 29.9h-8l3.3-20h8.6c4.6 0 8 2 8 6-.6 11.3-6 13.3-11.9 14zm55.2-29.9h-11.9l2.7-13.9h-12.7l-10.6 53.7h12.6l6-29.9h10c4.6 0 4.6 2 4 5.3l-4.6 24.5h13.3l4.6-27.2c1.2-6.5-2.7-11.8-13.4-12.5zm43 0h-24.5l-10.6 53.7h12.6l2.7-13.9h11.9c11.3.7 23.9-8.6 23.9-24.5-.1-9.3-5.4-14.6-16-15.3zm-9.3 29.9h-8l3.3-19.9h8.6c4.6 0 8 2 8 6-.6 11.2-5.9 13.2-11.9 13.9z"/>
  </symbol>
  <!-- PYTHON -->
  <symbol id="python-1" viewBox="0 0 200 200">
    <path d="M100 30c19.33 0 35 7.835 35 17.5V65c0 8.707-.548 15.09-1.775 19.792-1.218 4.663-3.07 7.545-5.61 9.427-2.586 1.915-6.104 2.96-10.989 3.495-4.888.534-10.904.536-18.376.536h-.097c-6.484 0-12.04 0-16.657.56-4.653.564-8.582 1.718-11.683 4.198-3.127 2.502-5.194 6.175-6.483 11.333-1.283 5.131-1.83 11.863-1.83 20.659h-14c-9.665 0-17.5-15.67-17.5-35s7.835-35 17.5-35H100v-3.5H65v-14C65 37.835 80.67 30 100 30ZM80.75 53.975a6.475 6.475 0 1 0 0-12.95 6.475 6.475 0 0 0 0 12.95Z"/>
    <path d="M138.5 65c0 8.793-.546 15.535-1.889 20.677-1.353 5.18-3.548 8.861-6.913 11.354-3.321 2.46-7.568 3.602-12.691 4.162-5.099.557-11.303.557-18.666.557h-.091c-6.6 0-11.949.003-16.332.534-4.37.53-7.55 1.563-9.919 3.458-2.342 1.873-4.103 4.763-5.274 9.448C65.547 119.903 65 126.296 65 135v17.5c0 9.665 15.67 17.5 35 17.5s35-7.835 35-17.5v-14h-35V135h52.5c9.665 0 17.5-15.67 17.5-35s-7.835-35-17.5-35h-14Zm-12.775 87.5a6.475 6.475 0 1 1-12.95 0 6.475 6.475 0 0 1 12.95 0Z"/>
  </symbol>
  <!-- R -->
  <symbol id="R-1" viewBox="0 0 200 200">
    <path d="M100 139.8c-38.7 0-70-21-70-46.9S61.3 46 100 46s70 21 70 46.9-31.3 46.9-70 46.9zm10.7-75.5c-29.4 0-53.2 14.3-53.2 32s23.8 32 53.2 32c29.4 0 51.1-9.8 51.1-32 0-22.1-21.7-32-51.1-32z" />
  </symbol>
  <symbol id="R-2" viewBox="0 0 200 200">
    <path d="M136.6 118.6s4.2 1.3 6.7 2.5c.9.4 2.3 1.3 3.4 2.4 1 1.1 1.6 2.2 1.6 2.2L165 154h-27l-12.6-23.7s-2.6-4.4-4.2-5.7c-1.3-1.1-1.9-1.5-3.2-1.5h-6.4V154H87.7V75.1h48s21.8.4 21.8 21.2-20.9 22.3-20.9 22.3zm-10.4-26.4h-14.5v13.4h14.5s6.7 0 6.7-6.8c0-6.9-6.7-6.6-6.7-6.6z" />
  </symbol>
  <!-- REACT.JS -->
  <symbol id="react-1" viewBox="0 0 200 200">
    <path d="M100 85.4c-8.1 0-14.6 6.6-14.6 14.7s6.6 14.6 14.6 14.6c8.1 0 14.6-6.6 14.6-14.6 0-8.2-6.5-14.7-14.6-14.7zm0 0c-8.1 0-14.6 6.6-14.6 14.7s6.6 14.6 14.6 14.6c8.1 0 14.6-6.6 14.6-14.6 0-8.2-6.5-14.7-14.6-14.7zm0 0c-8.1 0-14.6 6.6-14.6 14.7s6.6 14.6 14.6 14.6c8.1 0 14.6-6.6 14.6-14.6 0-8.2-6.5-14.7-14.6-14.7zm0 0c-8.1 0-14.6 6.6-14.6 14.7s6.6 14.6 14.6 14.6c8.1 0 14.6-6.6 14.6-14.6 0-8.2-6.5-14.7-14.6-14.7zm0 0c-8.1 0-14.6 6.6-14.6 14.7s6.6 14.6 14.6 14.6c8.1 0 14.6-6.6 14.6-14.6 0-8.2-6.5-14.7-14.6-14.7zm0 0c-8.1 0-14.6 6.6-14.6 14.7s6.6 14.6 14.6 14.6c8.1 0 14.6-6.6 14.6-14.6 0-8.2-6.5-14.7-14.6-14.7zm0 0c-8.1 0-14.6 6.6-14.6 14.7s6.6 14.6 14.6 14.6c8.1 0 14.6-6.6 14.6-14.6 0-8.2-6.5-14.7-14.6-14.7zm0 0c-8.1 0-14.6 6.6-14.6 14.7s6.6 14.6 14.6 14.6c8.1 0 14.6-6.6 14.6-14.6 0-8.2-6.5-14.7-14.6-14.7zm0 0c-8.1 0-14.6 6.6-14.6 14.7s6.6 14.6 14.6 14.6c8.1 0 14.6-6.6 14.6-14.6 0-8.2-6.5-14.7-14.6-14.7zm0 0c-8.1 0-14.6 6.6-14.6 14.7s6.6 14.6 14.6 14.6c8.1 0 14.6-6.6 14.6-14.6 0-8.2-6.5-14.7-14.6-14.7zm0 0c-8.1 0-14.6 6.6-14.6 14.7s6.6 14.6 14.6 14.6c8.1 0 14.6-6.6 14.6-14.6 0-8.2-6.5-14.7-14.6-14.7zm0 0c-8.1 0-14.6 6.6-14.6 14.7s6.6 14.6 14.6 14.6c8.1 0 14.6-6.6 14.6-14.6 0-8.2-6.5-14.7-14.6-14.7zm0 0c-8.1 0-14.6 6.6-14.6 14.7s6.6 14.6 14.6 14.6c8.1 0 14.6-6.6 14.6-14.6 0-8.2-6.5-14.7-14.6-14.7zm0 0c-8.1 0-14.6 6.6-14.6 14.7s6.6 14.6 14.6 14.6c8.1 0 14.6-6.6 14.6-14.6 0-8.2-6.5-14.7-14.6-14.7zm0 0c-8.1 0-14.6 6.6-14.6 14.7s6.6 14.6 14.6 14.6c8.1 0 14.6-6.6 14.6-14.6 0-8.2-6.5-14.7-14.6-14.7zm0 0c-8.1 0-14.6 6.6-14.6 14.7s6.6 14.6 14.6 14.6c8.1 0 14.6-6.6 14.6-14.6 0-8.2-6.5-14.7-14.6-14.7zm0 0c-8.1 0-14.6 6.6-14.6 14.7s6.6 14.6 14.6 14.6c8.1 0 14.6-6.6 14.6-14.6 0-8.2-6.5-14.7-14.6-14.7zm0 0c-8.1 0-14.6 6.6-14.6 14.7s6.6 14.6 14.6 14.6c8.1 0 14.6-6.6 14.6-14.6 0-8.2-6.5-14.7-14.6-14.7zm0 0c-8.1 0-14.6 6.6-14.6 14.7s6.6 14.6 14.6 14.6c8.1 0 14.6-6.6 14.6-14.6 0-8.2-6.5-14.7-14.6-14.7zm0 0c-8.1 0-14.6 6.6-14.6 14.7s6.6 14.6 14.6 14.6c8.1 0 14.6-6.6 14.6-14.6 0-8.2-6.5-14.7-14.6-14.7zm0 0c-8.1 0-14.6 6.6-14.6 14.7s6.6 14.6 14.6 14.6c8.1 0 14.6-6.6 14.6-14.6 0-8.2-6.5-14.7-14.6-14.7zm0 29.3c8.1 0 14.6-6.6 14.6-14.6 0-8.1-6.5-14.7-14.6-14.7s-14.6 6.6-14.6 14.7c-.1 8 6.5 14.6 14.6 14.6zm78.6-14.7c0-10.4-13-20.3-33-26.4 4.6-20.4 2.6-36.6-6.5-41.8-2.1-1.2-4.5-1.8-7.1-1.8-8.8 0-20.3 6.3-32 17.2-11.7-10.8-23.2-17-32-17-2.7 0-5.1.6-7.2 1.8-9 5.2-11 21.4-6.4 41.7-19.9 6.2-32.9 16-32.9 26.4 0 10.4 13 20.3 33 26.4-4.6 20.4-2.6 36.6 6.5 41.8 2.1 1.2 4.5 1.8 7.2 1.8 8.8 0 20.3-6.3 32-17.2 11.7 10.8 23.2 17 32 17 2.7 0 5.1-.6 7.2-1.8 9-5.2 11-21.4 6.4-41.7 19.8-6.1 32.8-16 32.8-26.4zm-46.7-62.9c1.5 0 2.6.3 3.6.9 4.4 2.5 6.3 12 4.8 24.3-.4 3-.9 6.2-1.6 9.4-6.3-1.5-13.1-2.7-20.3-3.5-4.3-5.9-8.8-11.3-13.3-16 10.4-9.7 20.2-15.1 26.8-15.1zm-60.3 79.3c1.5 2.6 3 5.1 4.6 7.5-4.5-.7-8.9-1.5-13.1-2.5 1.2-4.1 2.6-8.4 4.3-12.7 1.3 2.6 2.7 5.2 4.2 7.7zm-8.6-37.8c4.2-1 8.6-1.9 13.2-2.5-1.6 2.5-3.1 5-4.6 7.6-1.5 2.6-2.9 5.1-4.2 7.7-1.7-4.3-3.2-8.6-4.4-12.8zm8.2 21.5c2-4.3 4.2-8.6 6.6-12.8 2.5-4.3 5.1-8.4 7.7-12.2 4.8-.4 9.6-.7 14.5-.7 4.8 0 9.7.2 14.4.6 2.7 3.8 5.3 7.9 7.8 12.2 2.4 4.2 4.7 8.5 6.7 12.8-2 4.3-4.2 8.6-6.6 12.8-2.5 4.3-5.1 8.4-7.7 12.2-4.8.4-9.6.6-14.5.6-4.8 0-9.7-.2-14.4-.6-2.7-3.8-5.3-7.9-7.8-12.2-2.5-4.1-4.7-8.4-6.7-12.7zm57.2 16.2c1.5-2.6 2.8-5.2 4.2-7.7 1.7 4.3 3.2 8.6 4.4 12.8-4.2 1-8.6 1.9-13.2 2.6l4.6-7.7zm0-32.7c-1.5-2.6-3-5.1-4.6-7.5 4.6.7 8.9 1.5 13.1 2.5-1.2 4.1-2.7 8.4-4.3 12.7-1.4-2.6-2.7-5.1-4.2-7.7zm-19.6-16.1c-2.9-.1-5.8-.2-8.8-.2-3 0-6 .1-8.9.2 2.9-3.8 5.9-7.2 8.8-10.3 3 3.1 6 6.5 8.9 10.3zm-44.6-29.4c1-.6 2.2-.9 3.7-.9 6.6 0 16.5 5.3 26.9 14.9-4.5 4.7-9 10.1-13.2 16-7.3.8-14.1 1.9-20.4 3.5-.7-3.2-1.3-6.3-1.7-9.3-1.5-12.1.4-21.6 4.7-24.2zm-8 81.4c-3.2-1-6.2-2.1-9-3.3-11.3-4.8-18.7-11.2-18.7-16.2s7.3-11.4 18.7-16.2c2.8-1.2 5.8-2.2 8.9-3.2 1.8 6.3 4.2 12.8 7.2 19.5-3 6.7-5.3 13.2-7.1 19.4zm11.8 43.4c-1.4 0-2.7-.3-3.6-.9-4.4-2.5-6.3-12-4.8-24.3.4-3 .9-6.2 1.6-9.4 6.3 1.5 13.1 2.7 20.4 3.5 4.3 5.9 8.8 11.3 13.3 16-10.4 9.8-20.2 15.1-26.9 15.1zm32.1-20.1c-3-3.1-6-6.5-8.9-10.3 2.9.1 5.8.2 8.8.2 3 0 6-.1 8.9-.2-2.9 3.8-5.9 7.2-8.8 10.3zm35.7 19.1c-1 .6-2.2.8-3.7.8-6.6 0-16.5-5.3-26.9-14.9 4.5-4.7 9-10.1 13.2-16 7.3-.8 14.1-2 20.4-3.5.7 3.2 1.3 6.3 1.7 9.3 1.4 12.2-.4 21.8-4.7 24.3zm17-45.7c-2.8 1.2-5.8 2.2-8.9 3.2-1.8-6.3-4.2-12.8-7.2-19.5 3-6.7 5.3-13.2 7.1-19.4 3.2 1 6.2 2.1 9 3.3 11.3 4.8 18.7 11.2 18.7 16.2 0 5.1-7.4 11.4-18.7 16.2zm-52.8-30.8c-8.1 0-14.6 6.6-14.6 14.7s6.6 14.6 14.6 14.6c8.1 0 14.6-6.6 14.6-14.6 0-8.2-6.5-14.7-14.6-14.7zm0 0c-8.1 0-14.6 6.6-14.6 14.7s6.6 14.6 14.6 14.6c8.1 0 14.6-6.6 14.6-14.6 0-8.2-6.5-14.7-14.6-14.7zm0 0c-8.1 0-14.6 6.6-14.6 14.7s6.6 14.6 14.6 14.6c8.1 0 14.6-6.6 14.6-14.6 0-8.2-6.5-14.7-14.6-14.7zm0 0c-8.1 0-14.6 6.6-14.6 14.7s6.6 14.6 14.6 14.6c8.1 0 14.6-6.6 14.6-14.6 0-8.2-6.5-14.7-14.6-14.7zm0 0c-8.1 0-14.6 6.6-14.6 14.7s6.6 14.6 14.6 14.6c8.1 0 14.6-6.6 14.6-14.6 0-8.2-6.5-14.7-14.6-14.7zm0 0c-8.1 0-14.6 6.6-14.6 14.7s6.6 14.6 14.6 14.6c8.1 0 14.6-6.6 14.6-14.6 0-8.2-6.5-14.7-14.6-14.7zm0 0c-8.1 0-14.6 6.6-14.6 14.7s6.6 14.6 14.6 14.6c8.1 0 14.6-6.6 14.6-14.6 0-8.2-6.5-14.7-14.6-14.7zm0 0c-8.1 0-14.6 6.6-14.6 14.7s6.6 14.6 14.6 14.6c8.1 0 14.6-6.6 14.6-14.6 0-8.2-6.5-14.7-14.6-14.7zm0 0c-8.1 0-14.6 6.6-14.6 14.7s6.6 14.6 14.6 14.6c8.1 0 14.6-6.6 14.6-14.6 0-8.2-6.5-14.7-14.6-14.7zm0 0c-8.1 0-14.6 6.6-14.6 14.7s6.6 14.6 14.6 14.6c8.1 0 14.6-6.6 14.6-14.6 0-8.2-6.5-14.7-14.6-14.7zm0 0c-8.1 0-14.6 6.6-14.6 14.7s6.6 14.6 14.6 14.6c8.1 0 14.6-6.6 14.6-14.6 0-8.2-6.5-14.7-14.6-14.7z"/>
  </symbol>
  <!-- REACT-QUERY -->
  <symbol id="react-query-1" viewBox="0 0 200 200">
    <path fill-rule="evenodd" d="M59.27 74.981c-2.279-11.05-2.768-19.525-1.295-25.68.877-3.66 2.478-6.645 4.914-8.8 2.57-2.274 5.822-3.39 9.474-3.39 6.026 0 12.361 2.748 19.13 7.968 2.762 2.13 5.628 4.696 8.604 7.7a6.47 6.47 0 0 1 .803-.858c8.414-7.498 15.499-12.157 21.558-13.953 3.603-1.068 6.985-1.17 10.065-.134 3.252 1.095 5.843 3.357 7.67 6.525 3.017 5.228 3.813 12.099 2.688 20.582-.458 3.458-1.242 7.225-2.349 11.306.417.05.836.143 1.251.28 10.676 3.538 18.235 7.343 22.812 11.69 2.723 2.588 4.502 5.468 5.144 8.656.679 3.365.017 6.74-1.808 9.906-3.011 5.221-8.548 9.339-16.435 12.6-3.167 1.31-6.75 2.496-10.754 3.563.183.412.325.85.42 1.31 2.278 11.05 2.767 19.525 1.294 25.68-.876 3.66-2.477 6.646-4.913 8.8-2.571 2.274-5.822 3.391-9.475 3.391-6.025 0-12.36-2.748-19.13-7.969-2.79-2.151-5.688-4.75-8.698-7.796-.31.484-.69.934-1.14 1.335-8.414 7.499-15.499 12.157-21.558 13.954-3.603 1.068-6.985 1.17-10.065.133-3.252-1.094-5.843-3.356-7.67-6.524-3.017-5.229-3.813-12.1-2.688-20.583.475-3.583 1.3-7.497 2.47-11.749a6.497 6.497 0 0 1-1.372-.294c-10.676-3.538-18.235-7.343-22.812-11.691-2.723-2.587-4.502-5.467-5.144-8.655-.679-3.365-.017-6.74 1.808-9.906 3.011-5.22 8.548-9.338 16.435-12.6 3.261-1.349 6.964-2.567 11.113-3.658a6.461 6.461 0 0 1-.347-1.139Zm74.443 50.357a2.015 2.015 0 0 1 2.316 1.537l.013.061.113.588c3.67 19.292 1.085 28.938-7.754 28.938-8.649 0-19.658-8.231-33.028-24.693a2.016 2.016 0 0 1 1.52-3.284h.062l.704.005c5.626.03 11.095-.166 16.408-.589 6.272-.499 12.82-1.353 19.646-2.563ZM73.01 110.755l.033.058.354.616a195.742 195.742 0 0 0 8.849 14.015c3.613 5.206 7.676 10.477 12.19 15.812a2.014 2.014 0 0 1-.17 2.779l-.05.046-.455.391c-14.933 12.795-24.639 15.349-29.117 7.663-4.385-7.524-2.795-21.204 4.768-41.042a2.015 2.015 0 0 1 3.598-.338Zm68.281-28.467.061.02.562.194c18.433 6.412 25.435 13.459 21.009 21.14-4.329 7.512-16.915 12.981-37.757 16.408a2.015 2.015 0 0 1-2.063-3.009 196.585 196.585 0 0 0 8.066-15.157c2.712-5.701 5.258-11.821 7.637-18.359a2.015 2.015 0 0 1 2.424-1.254l.061.017Zm-65.11-3.228c.96.564 1.28 1.799.716 2.757a196.631 196.631 0 0 0-8.065 15.158c-2.713 5.701-5.259 11.821-7.638 18.359a2.016 2.016 0 0 1-2.485 1.237l-.061-.02-.562-.194c-18.432-6.412-25.435-13.459-21.009-21.14 4.33-7.512 16.915-12.981 37.757-16.408.465-.076.942.012 1.348.251Zm59.176-31.58c4.384 7.523 2.794 21.204-4.769 41.04a2.013 2.013 0 0 1-3.597.34l-.034-.058-.353-.617a196.166 196.166 0 0 0-8.849-14.014c-3.614-5.207-7.677-10.478-12.19-15.813a2.014 2.014 0 0 1 .169-2.779l.051-.046.454-.39c14.933-12.796 24.639-15.35 29.118-7.663ZM72.355 42.9c8.648 0 19.657 8.232 33.027 24.694a2.015 2.015 0 0 1-1.518 3.284h-.063l-.704-.005c-5.626-.03-11.096.165-16.408.588-6.272.5-12.82 1.354-19.647 2.564a2.014 2.014 0 0 1-2.315-1.537l-.014-.062-.113-.587C60.931 52.547 63.516 42.9 72.355 42.9Zm35.778 34.497H90.864a7.05 7.05 0 0 0-6.115 3.541l-8.67 15.108a7.05 7.05 0 0 0 0 7.019l8.67 15.108a7.051 7.051 0 0 0 6.115 3.541h17.269a7.05 7.05 0 0 0 6.114-3.541l8.671-15.108a7.052 7.052 0 0 0 0-7.019l-8.671-15.108a7.05 7.05 0 0 0-6.114-3.54Z" clip-rule="evenodd"/>
  </symbol>
  <!-- REDUX -->
  <symbol id="redux-1" viewBox="0 0 200 200">
    <path d="M127 126.4c5.2-.5 9.1-5 8.9-10.3-.2-5.3-4.6-9.6-10-9.6h-.4c-5.5.2-9.8 4.8-9.6 10.3.2 2.7 1.2 5 2.9 6.6-6.1 11.9-15.3 20.7-29.2 28-9.4 5-19.2 6.8-29 5.5-8-1.1-14.3-4.6-18.2-10.5-5.7-8.7-6.2-18.2-1.4-27.6 3.4-6.8 8.7-11.8 12.1-14.3-.7-2.3-1.8-6.2-2.3-9.1-25.8 18.7-23.2 44-15.3 55.9 5.9 8.9 17.8 14.4 31 14.4 3.6 0 7.1-.4 10.7-1.2 22.7-4.5 40-18 49.8-38.1zm31.4-22.1c-13.5-15.9-33.5-24.6-56.3-24.6h-2.9c-1.6-3.2-5-5.3-8.7-5.3h-.4c-5.5.2-9.8 4.8-9.6 10.3.2 5.3 4.6 9.6 10 9.6h.4c3.9-.2 7.3-2.7 8.7-6.1h3.2c13.5 0 26.4 3.9 37.9 11.6 8.9 5.9 15.3 13.5 18.9 22.8 3 7.5 2.9 14.8-.4 21-5 9.4-13.4 14.6-24.4 14.6-7.1 0-13.9-2.1-17.5-3.7-2 1.8-5.5 4.6-8 6.4 7.7 3.6 15.5 5.5 23 5.5 17.1 0 29.8-9.4 34.6-18.9 5.2-10.3 4.8-28.1-8.5-43.2zm-90.5 25.1c.2 5.3 4.6 9.6 10 9.6h.4c5.5-.2 9.8-4.8 9.6-10.3-.2-5.3-4.6-9.6-10-9.6h-.4c-.4 0-.9 0-1.2.2-7.3-12.1-10.3-25.3-9.3-39.6.7-10.7 4.3-20 10.5-27.6 5.2-6.6 15.1-9.8 21.9-10 18.9-.4 26.9 23.2 27.4 32.6 2.3.5 6.2 1.8 8.9 2.7-2.1-28.9-20-43.8-37.1-43.8-16 0-30.8 11.6-36.7 28.7-8.2 22.8-2.9 44.7 7.1 62-.8 1.2-1.3 3.1-1.1 5.1z"/>
  </symbol>
  <!-- SASS -->
  <symbol id="sass-1" viewBox="0 0 200 200">
    <path d="M157.7 108.9c-5.6 0-10.4 1.4-14.5 3.4-1.5-3-3-5.6-3.2-7.5-.3-2.3-.6-3.6-.3-6.3.3-2.7 1.9-6.5 1.9-6.8 0-.3-.3-1.7-3.6-1.7-3.2 0-6 .6-6.3 1.5-.3.8-.9 2.8-1.3 4.8-.6 2.9-6.4 13.3-9.8 18.8-1.1-2.1-2-4-2.2-5.5-.3-2.2-.6-3.6-.3-6.3.3-2.7 1.9-6.5 1.9-6.8 0-.3-.3-1.7-3.6-1.7-3.2 0-6 .6-6.3 1.5l-1.3 4.8c-.7 1.9-8.5 19.3-10.5 23.8-1 2.3-1.9 4.2-2.6 5.4-.7 1.3 0 .1-.1.2-.6 1.1-.9 1.7-.9 1.7-.4.8-.9 1.5-1.1 1.5-.2 0-.5-2.1.1-5 1.2-6 4-15.4 3.9-15.8 0-.2.5-1.8-1.8-2.7-2.3-.8-3.1.6-3.3.6-.2 0-.3.5-.3.5s2.5-10.6-4.8-10.6c-4.6 0-11 5-14.2 9.6-2 1.1-6.3 3.4-10.8 5.9l-5.2 2.8-.3-.4c-8.9-9.5-25.5-16.3-24.8-29.1.3-4.7 1.9-16.9 31.8-31.8 24.5-12.2 44.1-8.8 47.5-1.4 4.8 10.6-10.5 30.4-35.9 33.2-9.7 1.1-14.8-2.7-16.1-4.1-1.3-1.5-1.5-1.5-2-1.3-.8.4-.3 1.8 0 2.5.8 2 3.9 5.5 9.2 7.2 4.7 1.5 16 2.4 29.8-2.9 15.4-6 27.4-22.5 23.9-36.4-3.6-14.1-27-18.7-49.1-10.9-13.2 4.7-27.4 12-37.7 21.6-12.2 11.6-14.2 21.5-13.3 25.7 2.8 14.7 23.1 24.3 31.3 31.4-.4.2-.8.4-1.1.6-4.1 2-19.5 10.1-23.4 18.7-4.4 9.7.7 16.7 4.1 17.6 10.4 2.9 21.1-2.3 26.9-10.9 5.8-8.6 5.1-19.8 2.4-24.8l-.1-.2 3.2-1.9c2.1-1.2 4.1-2.3 5.9-3.3-1 2.7-1.7 5.9-2.1 10.6-.4 5.5 1.8 12.6 4.8 15.4 1.3 1.2 2.9 1.3 3.8 1.3 3.4 0 5-2.8 6.7-6.3 2.1-4.2 4-9 4-9s-2.3 13 4.1 13c2.3 0 4.7-3 5.8-4.6 0 0 .1-.1.2-.3l.4-.6v-.1c.9-1.6 3-5.3 6.2-11.5 4-7.9 7.9-17.9 7.9-17.9s.4 2.4 1.5 6.4c.7 2.4 2.2 5 3.3 7.5-.9 1.3-1.5 2.1-1.5 2.1-.7 1-1.6 2.1-2.5 3.1-3.2 3.8-7 8.2-7.5 9.4-.6 1.5-.5 2.6.7 3.4.8.6 2.3.7 3.9.6 2.9-.2 4.9-.9 5.9-1.3 1.6-.6 3.3-1.4 5.1-2.7 3.1-2.3 5-5.6 4.8-10-.1-2.4-.9-4.8-1.8-7 .3-.4.6-.8.8-1.3 4.9-7.2 8.8-15.2 8.8-15.2s.4 2.4 1.5 6.4c.6 2 1.8 4.3 2.8 6.4-4.6 3.8-7.5 8.2-8.5 11-1.8 5.3-.4 7.7 2.3 8.3 1.2.3 3-.3 4.3-.9 1.6-.5 3.6-1.4 5.4-2.8 3.1-2.3 6.1-5.5 6-9.9-.1-2-.6-4-1.3-5.8 3.9-1.6 9-2.6 15.5-1.8 13.9 1.6 16.7 10.3 16.1 13.9-.5 3.6-3.4 5.6-4.4 6.3-1 .6-1.3.8-1.2 1.3.1.7.6.6 1.4.5 1.2-.2 7.3-3 7.6-9.7.2-8.1-8-17.5-22.5-17.4zm-107.2 36.2c-4.6 5-11.1 6.9-13.8 5.3-3-1.7-1.8-9.1 3.8-14.5 3.4-3.3 7.9-6.3 10.8-8.1.7-.4 1.7-1 2.8-1.7.2-.1.3-.2.3-.2l.7-.4c2.2 7.6.2 14.3-4.6 19.6zm33.6-22.9c-1.6 3.9-5 13.9-7 13.4-1.8-.5-2.8-8.1-.3-15.6 1.3-3.8 3.9-8.3 5.5-10 2.5-2.8 5.3-3.8 6-2.6.7 1.5-3.2 12.4-4.2 14.8zm27.7 13.3c-.7.3-1.3.6-1.6.4-.2-.1.3-.6.3-.6s3.5-3.7 4.8-5.4c.8-1 1.7-2.2 2.7-3.5v.4c0 4.4-4.3 7.4-6.2 8.7zm21.4-4.9c-.5-.4-.4-1.5 1.3-5.2.7-1.4 2.2-3.8 4.8-6.1.3.9.5 1.8.5 2.7-.2 5.6-4.2 7.7-6.6 8.6z"/>
  </symbol>
  <!-- SHINY -->
  <symbol id="shiny-1" viewBox="0 0 200 200">
    <path d="M63.4 93.7c1.6-6-2.4-10.4-5.8-14.9v-.1c-.1-.6-3.9-4-4.9-5.3-.5-.4-1-2.2-1.3-3.2-.1-.4-.1-.9 0-1.3.9-4.6 1.4-8 7.6-7 4.4.7 2.1 7.2 4.5 7.8h.1c1.4.1 4.2-3.3 4.6-4.4 1.6-4.5-7.6-7.2-10.4-7-5.6.3-9.3 3.4-11.6 8.4-4.2 9.2 3.6 15.3 8.3 21.6 3.5 4.8 3.4 9-1 13.1-4.8 4.5-10.4-1.7-11-6-.6-4-.5-6.8-3.9-1.7-3.1 4.6.1 10.8 6.2 11 7.9.2 16.2-1.6 18.6-11zm-33.2 34.4c13.1-.4 27.2 7.8 33.8 18.9.1.2.4.1.4-.1 1.4-4.8 3.8-8.6 7-11.9 1.7-1.7 3.6-3.2 5.7-4.5 13-8.4 32.6-10.2 47.5-11.6 7.4-.7 15.2-1.9 21.4-6.2 4.3-3 8.3-7.3 11.9-11 2.6-2.7 4.2-4.8 6.4-7.6 1.2-1.5 1.7-2.2 2.9-3.9.9-1.3 1.7-2.9 2.3-4.4.1-.3.6-1.5.7-2.8v-.4c-.4-6.2-9.2 3.5-10.4 4.7-1.9 1.8-4.4 3.8-6.8 5.2-.2.1-.4-.1-.4-.3.3-.9.6-2.1.9-3.5.5-1.8.8-3.1.9-3.6.1-.5.5-1.9 1.1-4.2.6-2.3 1.3-4.9 2.2-7.6 1.1-3.3 2.2-5.4 3.3-6.2.2-.1.1-.4-.2-.4l-2.5.2c-1 .1-2.1.3-3.3.6-.4.1-.8.4-1.1.7l-.8.8c-.2.2-.4.6-.7 1.2-.2.6-.4 1-.5 1.3-.1.3-.3.9-.5 1.7-.2.8-.4 1.5-.6 1.9-1 3.2-2.5 6.4-4.5 9.7-2 3.2-3.7 4.8-5 4.9h-.3c-.6 0-.9-.6-1-1.9-.2-2.7.5-6.2 1.9-10.3 1.4-4.1 2.9-7 4.4-8.7.3-.3.4-.6.4-.9 0-.3-.2-.5-.5-.5-2.2.1-3.9.5-5.1 1.2-1.2.7-2.4 2.1-3.4 4.1-.9 1.7-1.7 4-2.3 6.8-.1.2-.2.5-.4.9-.5 1-1 2.2-1.7 3.5-.7 1.3-1.3 2.4-1.8 3.3-.6.9-1.3 1.7-2.2 2.6-1.1 1-1.7 1.2-2 1.2h-.1c-.3 0-.8-.1-.9-1.3-.1-1.6.6-4.9 2-9.9.7-2.3 1.1-3.8 1.2-4.6.2-.8.2-1.5.2-2.3-.2-2.4-1.5-3.6-3.9-3.4-3.1.2-6 1.8-8.9 4.7-.2.2-.4 0-.4-.2.1-.8.2-1.3.2-1.6 0-.6-.3-1.1-.8-1.4-.5-.3-1.4-.4-2.9-.3l-2.5.2c-.2 0-.3.2-.2.4.1.2.2.5.2.9.1 1.7-.4 4.9-1.5 9.3-.1.2-.2.4-.3.5-.1.1-.4.5-.9 1.6-.5 1-1.1 2.2-1.7 3.5-.7 1.3-1.3 2.5-1.8 3.3-.5.9-1.2 1.7-2.1 2.5-1.1 1-1.7 1.2-2 1.2h-.1c-.2 0-.8 0-.9-1.6-.1-1.2.1-2.9.7-4.9.5-2 1-3.7 1.5-4.9.4-1.2 1.1-2.9 2-5.4.9-2.3 1.6-3.8 2.2-4.3.2-.2 0-.4-.2-.4l-3.6.2c-1.8.1-3.4 1.6-4.7 4.4-1.1 2.6-2 5-2.7 7.4v.1c-3.1 7.7-5.8 11.6-8.1 11.8h-.1c-.2 0-.7 0-.8-1.3-.1-1.1.1-2.5.5-4.4.2-.7.4-1.6.7-2.7.3-1.1.5-1.9.7-2.5.2-.6.4-1.4.7-2.4.3-1 .5-1.8.8-2.6.2-.8.3-1.6.3-2.5-.2-2.3-1.5-3.4-3.9-3.3-1.2.1-2.4.4-3.7 1-.6.3-1.4.8-2.2 1.4-.2.2-.5-.1-.3-.3 3.9-5.7 6.8-10.7 8.5-15.1.9-2.4 1.4-4.4 1.3-5.9-.1-2.2-1.3-3.2-3.4-3.1-2 .1-3.9 1.2-5.7 3-1.7 1.9-3.2 4.2-4.4 6.9-1.2 2.7-2.4 6-3.6 9.8-1.2 3.8-2.6 9.2-4.2 15.9-1.6 6.7-2.9 11.6-3.7 14.7 0 .2.1.3.2.3l6-.4v-.2c.3-1.4.6-2.6.8-3.6.3-1 .6-2.4.9-4.1.3-1.6.7-3.1 1-4.2.3-1.2.8-2.5 1.4-4.1.6-1.6 1.4-3 2.3-4.2.9-1.2 2-2.2 3.1-2.8 1.3-.8 2-1 2.3-1h.1c.4 0 .8.1.8 1 0 .6-.2 1.7-.6 3.3-2.1 6.5-3.1 11.6-2.9 15 .2 3.1 1.6 4.6 4.1 4.4 2.9-.2 6-3.3 9.4-9.6.1-.2.5-.1.5.1v2.1c.2 3.4 1.5 5.1 3.7 5.1h.3c1.3-.1 2.8-.9 4.3-2.4 1.5-1.4 2.8-3.2 3.9-5 .2-.3.4-.6.5-.9-.9 3.4-1.3 5.3-1.3 5.8v.2l6.3-.4v-.2c0-.2.3-1.3.4-2.3.2-1.4.5-2.7.8-3.9.3-1.2.6-2.7 1.1-4.5.5-1.8 1-3.4 1.6-4.8s1.3-2.8 2-4.2c.7-1.3 1.6-2.4 2.5-3.2.9-.7 1.9-1.2 2.9-1.2.9-.1 1.4.3 1.4 1.1 0 .4 0 .8-.2 1.2-2.5 8.7-3.6 14.6-3.4 17.4.2 3 1.6 4.4 4.1 4.2 1.3-.1 2.8-.9 4.3-2.4 1.5-1.4 2.8-3.2 3.9-5 .4-.6.7-1.2 1.1-1.9.1-.2.5-.1.5.1v1c.1 1.9.5 3.3 1.2 4.2.8 1 1.7 1.4 2.9 1.3 1.1-.1 2-.3 2.8-.6.8-.3 1.9-1.2 3.2-2.6.9-.9 1.8-2.1 2.9-3.6.2-.2.5-.1.4.2l-1.7 6.2c0 .1-.1.1-.2.2-3.4.9-8.5 1.1-11.4 3.2-.6.3-1.4 1.2-2 2-.5.8-1.2 2-1.1 3 .1 1.7.6 3.1 2.3 4 1.3.7 2.4.8 4.1.8h.9c2-.1 4.1-.8 6-2 1.9-1.2 3.5-2.8 4.7-4.7.9-1.4 1.7-3.2 2.4-5.3 0-.1.1-.1.1-.1l.6-.3c4-1.9 7.1-5 10.8-7.4 2.4-1.6.8 2.2.5 2.6-1.8 2.9-4.5 5.1-6.6 7.8-5.5 7.1-13.1 13-22.2 14.6-26.3 4.6-51.5 1.8-76.2 6.1-3.2.6-6.4 1.2-9.6 2.1-6.3 1.6-12.5 3.9-18.8 6.9 0 .3.1.6.3.6zm46.2-51.2c-.2.2-.5.1-.4-.2 1.5-5.2 3.1-10 4.8-14.2 2.4-6 3.9-7.4 4.8-7.4.1 0 .5 0 .6 1 .1.8-.4 2.6-1.3 5.4-1.6 4-4.4 9.2-8.5 15.4zm68.4 20.7c-1.7 4.7-3.9 7.2-6.6 7.4-.8 0-1.4-.1-1.9-.6-.6-.5-1.3-1.1-1.3-1.8-.1-1 0-1.8.2-2.3v-.1c1.3-1.4 3.9-1.8 5.6-2.2 1.2-.3 2.5-.5 3.7-.7.2-.1.3.1.3.3zM104 68.5c1.5-.1 3.3-.6 3.7-2.8.2-1-.4-2.1-.8-2.4-.4-.3-.9-.4-1.5-.4-.7 0-1.5.5-2.2 1.1-1 .9-1 2.3-.6 3.1.3.9.8 1.4 1.4 1.4z" />
  </symbol>
  <!-- STORYBOOK -->
  <symbol id="storybook-1" viewBox="0 0 200 200">
    <path fill-rule="evenodd" d="m127.451 31.342-.66 15.866a1.05 1.05 0 0 0 1.684.88l6.163-4.675 5.205 4.101a1.05 1.05 0 0 0 1.7-.861l-.565-16.156 7.728-.483a7.04 7.04 0 0 1 7.478 7.025v125.922a7.038 7.038 0 0 1-7.354 7.032l-93.955-4.22a7.038 7.038 0 0 1-6.718-6.768L43.821 43.446a7.039 7.039 0 0 1 6.594-7.289l77.036-4.815Zm3 50.928c-2.476 1.924-20.923 3.236-20.923.498.39-10.45-4.288-10.908-6.887-10.908-2.469 0-6.628.747-6.628 6.345 0 5.704 6.077 8.925 13.21 12.705 10.134 5.37 22.397 11.869 22.397 28.222 0 15.675-12.735 24.333-28.979 24.333-16.764 0-31.414-6.782-29.76-30.296.65-2.762 21.963-2.105 21.963 0-.26 9.703 1.949 12.557 7.537 12.557 4.288 0 6.238-2.364 6.238-6.345 0-6.024-6.332-9.579-13.617-13.669-9.862-5.537-21.47-12.055-21.47-27.01 0-14.928 10.266-24.88 28.589-24.88s28.33 9.8 28.33 28.448Z" clip-rule="evenodd"/>
  </symbol>
  <!-- TAILWIND -->
  <symbol id="tailwind-1" viewBox="0 0 200 200">
    <path d="M100 58.3c-18.7 0-30.3 9.3-35 27.8 7-9.3 15.2-12.8 24.5-10.4 5.3 1.3 9.1 5.2 13.3 9.4C109.7 92 117.7 100 135 100c18.7 0 30.3-9.3 35-27.8-7 9.3-15.2 12.8-24.5 10.4-5.3-1.3-9.1-5.2-13.3-9.4-6.9-6.9-14.8-14.9-32.2-14.9zM65 100c-18.7 0-30.3 9.3-35 27.8 7-9.3 15.2-12.8 24.5-10.4 5.3 1.3 9.1 5.2 13.3 9.4 6.9 6.9 14.8 14.9 32.2 14.9 18.7 0 30.3-9.3 35-27.8-7 9.3-15.2 12.8-24.5 10.4-5.3-1.3-9.1-5.2-13.3-9.4C90.3 108 82.3 100 65 100z" />
  </symbol>
  <!-- THREE.JS -->
  <symbol id="threejs-1" viewBox="0 0 200 200">
    <path d="M66.7 167.5l-4.3-17-4.3-17 16.8 4.8 16.8 4.8-12.5 12.2-12.5 12.2zm.7-2.5l21.9-21.3-29.3-8.3 7.4 29.6zm24.3-21.9l-4.3-17-4.3-17 16.9 4.9 16.8 4.8-12.5 12.2-12.6 12.1zm.7-2.5l21.9-21.3-29.3-8.2 7.4 29.5zm24.4-21.9l-4.3-17-4.3-17 16.8 4.8 16.8 4.8-12.5 12.2-12.5 12.2zm.7-2.5l21.9-21.2-29.4-8.3 7.5 29.5zm24.4-21.9l-4.3-17-4.3-17 16.8 4.8 16.8 4.8-12.5 12.2-12.5 12.2zm.7-2.5l21.9-21.3-29.3-8.3 7.4 29.6zm-9.3-31.4l4.3 17 4.3 17-16.8-4.8-16.8-4.8 12.5-12.2 12.5-12.2zm-.7 2.5l-21.9 21.3 29.3 8.3-7.4-29.6zm-24.4 21.9l4.3 17 4.3 17-16.8-4.8-16.8-4.8 12.5-12.2 12.5-12.2zm-.7 2.5l-21.9 21.3 29.3 8.3-7.4-29.6zm-24.3 21.9l4.3 17 4.3 17-16.8-4.8-16.8-4.8 12.5-12.2 12.5-12.2zm-.7 2.5l-21.9 21.3 29.3 8.3-7.4-29.6zm-24.4 21.9l-4.3-17-4.3-17 16.8 4.8 16.8 4.8-12.5 12.2-12.5 12.2zm.7-2.5l21.9-21.3-29.3-8.3 7.4 29.6zm24.4-21.9l-4.3-17-4.3-17 16.8 4.8 16.8 4.8-12.5 12.2-12.5 12.2zm.7-2.5l21.9-21.3-29.3-8.3 7.4 29.6zm24.3-21.9l-4.3-17-4.3-17 16.8 4.8 16.8 4.8-12.5 12.2-12.5 12.2zm.7-2.5l21.9-21.3-29.3-8.3 7.4 29.6zm-9.3-31.4l4.3 17 4.3 17-16.8-4.8-16.8-4.8 12.5-12.2 12.5-12.2zm-.7 2.5l-21.8 21.3 29.3 8.3-7.5-29.6zm-24.3 21.9l4.3 17 4.3 17-16.8-4.8-16.8-4.8 12.4-12.2 12.6-12.2zm-.7 2.5l-21.9 21.2 29.3 8.3-7.4-29.5zm-24.4 21.9l-4.3-17-4.3-17 16.8 4.8 16.8 4.8-12.5 12.2-12.5 12.2zm.7-2.5l21.9-21.3-29.3-8.3 7.4 29.6zm-9.3-31.4l-4.3-17-4.3-17 16.8 4.8 16.9 4.8-12.6 12.2-12.5 12.2zm.7-2.5l21.9-21.3-29.3-8.3 7.4 29.6zm33 12l-4.3-17-4.3-17 16.8 4.8 16.8 4.8-12.5 12.2-12.5 12.2zm.7-2.5l21.9-21.3-29.3-8.3 7.4 29.6zm-9.3-31.4l4.3 17 4.3 17-16.8-4.8-16.8-4.8 12.5-12.2 12.5-12.2zm-.7 2.5l-21.9 21.2 29.3 8.3-7.4-29.5zm-34.8-13.9l139 39.3-103.5 100.7-35.5-140zm136.5 39.9l-134.7-38 34.3 135.6 100.4-97.6z"/>
  </symbol>
  <!-- TYPESCRIPT -->
  <symbol id="typescript-1" viewBox="0 0 200 200">
    <path d="M44.2 100.7l-.1 8.2h26v74h18.4v-74h26v-8c0-4.4-.1-8.2-.2-8.3-.1-.1-15.9-.2-35.1-.2l-35 .1v8.2zm117.2-8.4c5.1 1.3 9 3.5 12.5 7.2 1.8 2 4.6 5.6 4.8 6.4.1.3-8.6 6.1-13.9 9.4-.2.1-1-.7-1.8-2-2.6-3.7-5.3-5.4-9.4-5.7-6.1-.4-10 2.8-9.9 8.1 0 1.6.2 2.5.9 3.7 1.3 2.8 3.8 4.4 11.6 7.8 14.3 6.2 20.4 10.2 24.3 16 4.3 6.4 5.2 16.7 2.3 24.4-3.2 8.3-11 14-22.1 15.8-3.4.6-11.6.5-15.2-.2-8-1.4-15.7-5.4-20.3-10.6-1.8-2-5.4-7.3-5.2-7.7.1-.1.9-.6 1.8-1.2.9-.5 4.3-2.4 7.4-4.3l5.7-3.3 1.2 1.8c1.7 2.6 5.4 6.1 7.6 7.3 6.4 3.4 15.1 2.9 19.5-1 1.8-1.7 2.6-3.4 2.6-6 0-2.3-.3-3.3-1.5-5.1-1.6-2.2-4.7-4.1-13.7-8-10.3-4.4-14.8-7.2-18.8-11.6-2.3-2.5-4.6-6.6-5.5-10-.8-2.8-1-9.9-.3-12.8 2.1-10 9.7-16.9 20.5-19 3.2-.5 11.4-.3 14.9.6z"/>
  </symbol>
  <!-- VISUAL STUDIO CODE -->
  <symbol id="vscode-1" viewBox="0 0 200 200">
    <path d="M136.2 168.7c-3.3 1.6-7.3.9-9.9-1.7 3.2 3.2 8.7.9 8.7-3.6v-126.8c0-4.6-5.5-6.8-8.7-3.6 2.6-2.6 6.6-3.3 9.9-1.7l28.8 13.8c3 1.5 5 4.5 5 7.9v94c0 3.4-1.9 6.4-5 7.9l-28.8 13.8z"/>
  </symbol>
  <symbol id="vscode-2" viewBox="0 0 200 200">
    <path d="M126.3 167c.2.2.4.4.6.5 3.3 2.4 8.1.1 8.1-4.2v-31.7l-87.9-66.6c-2.2-1.7-5.4-1.6-7.4.3l-7.7 7c-2.5 2.3-2.5 6.3 0 8.6l94.3 86.1z"/>
  </symbol>
  <symbol id="vscode-3" viewBox="0 0 200 200">
    <path d="M71.1 116.7l-24 18.2c-2.2 1.7-5.4 1.6-7.4-.3l-7.7-7c-2.5-2.3-2.5-6.3 0-8.6l20.8-19 18.3 16.7zm55.8-84.3l-.6.5-55.2 50.4 22.1 16.7 41.8-31.8v-31.6c0-4.3-4.8-6.6-8.1-4.2z"/>
  </symbol>
  <!-- VITE -->
  <symbol id="vite-1" viewBox="0 0 200 200">
    <path d="m77.9 51.717-43.688-7.809c-2.984-.533-5.235 2.656-3.734 5.29l67.07 117.613c1.377 2.416 4.866 2.402 6.224-.026l65.765-117.6c1.475-2.637-.787-5.802-3.761-5.26l-35.175 6.411-3.255 11.285 12.515-2.415c3.638-.702 6.502 3.075 4.841 6.388l-39.723 79.275-.798 1.233c-2.686 4.151-9.127 1.511-8.126-3.331l6.093-29.492-6.93 2.106c-3.24.984-6.353-1.853-5.676-5.169l3.748-18.351-12.196 2.814c-2.906.67-5.64-1.64-5.464-4.617l2.27-38.345Z"/>
    <path d="m130.488 31.385-46.553 9.122-2.882 48.68 12.386-2.859c3.169-.73 6.033 2.06 5.382 5.248l-3.726 18.243 6.934-2.107c3.243-.984 6.36 1.859 5.674 5.179l-5.124 24.8 36.518-72.877-12.167 2.348h-.001c-3.275.632-6.064-2.42-5.139-5.625l8.698-30.152Z"/>
  </symbol>
  <!-- WEBSOCKET -->
  <symbol id="websocket-1" viewBox="0 0 200 200">
    <path d="M135.2 126.6h17.4v-41.8l-19.6-19.5-12.3 12.3 14.5 14.4v34.6zm17.5 8.7h-60.7l-14.5-14.5 6.1-6.1 12 12h24.6l-24.2-24.4 6.2-6.2 24.3 24.3v-24.6l-11.9-11.9 6.1-6.1-30.2-30.3h-60.5l17.3 17.3h36l12.7 12.8-18.6 18.5-12.7-12.7v-9.9h-17.4v17.1l30.1 30.1-12.2 12.2 19.6 19.6h85.2l-17.3-17.2z"/>
  </symbol>
  <!-- WORDPRESS -->
  <symbol id="wordpress-1" viewBox="0 0 200 200">
    <path d="M152.975 71.358c.323 8.927-2.366 20.112-5.27 28.286l-18.821 53.13c18.606-10.217 31.297-30.006 31.297-52.807 0-10.325-2.581-20.112-7.206-28.608zm-53.022-41.407c-38.61 0-70.015 31.297-70.015 70.015s31.297 70.015 70.015 70.015 70.015-31.297 70.015-70.015-31.297-70.015-70.015-70.015zm0 135.836c-36.352 0-65.821-29.469-65.821-65.821s29.469-65.821 65.821-65.821 65.821 29.469 65.821 65.821c.108 36.352-29.469 65.821-65.821 65.821zm-28.393-98.408v3.657c0 .323-.215.645-.538.645h-6.991c-.753 0-1.075.43-.86 1.291l21.833 64.422 13.336-40.116-8.819-24.199c-.323-.86-.753-1.291-2.043-1.291h-6.13c-.323 0-.538-.215-.538-.645v-3.657c0-.323.215-.645.538-.645 11.4.538 22.801.538 34.308 0 .323 0 .538.215.538.645v3.657c0 .323-.215.645-.538.645h-6.13c-1.183 0-1.613.538-1.291 1.506l21.51 63.347 7.851-24.091c9.572-29.038-8.174-32.157-7.744-46.569.215-7.098 5.485-10.325 10.755-10.11-10.755-9.895-25.059-15.917-40.761-15.917-21.187 0-39.793 10.97-50.548 27.425 6.883-.108 14.197-.108 21.51-.538.43-.108.753.215.753.538zm10.97 90.234c5.485 1.721 11.4 2.581 17.531 2.581 7.098 0 13.874-1.183 20.112-3.442l-19.144-52.269-18.499 53.13zm-42.697-57.647c0 23.984 14.089 44.741 34.416 54.42l-29.038-79.372c-3.442 7.636-5.377 16.133-5.377 24.952zm113.143-28.608c.323 8.927-2.366 20.112-5.27 28.286l-18.821 53.13c18.606-10.217 31.297-30.006 31.297-52.807 0-10.325-2.581-20.112-7.206-28.608zm-81.415-3.979v3.657c0 .323-.215.645-.538.645h-6.991c-.753 0-1.075.43-.86 1.291l21.833 64.422 13.336-40.116-8.819-24.199c-.323-.86-.753-1.291-2.043-1.291h-6.13c-.323 0-.538-.215-.538-.645v-3.657c0-.323.215-.645.538-.645 11.4.538 22.801.538 34.308 0 .323 0 .538.215.538.645v3.657c0 .323-.215.645-.538.645h-6.13c-1.183 0-1.613.538-1.291 1.506l21.51 63.347 7.851-24.091c9.572-29.038-8.174-32.157-7.744-46.569.215-7.098 5.485-10.325 10.755-10.11-10.755-9.895-25.059-15.917-40.761-15.917-21.187 0-39.793 10.97-50.548 27.425 6.883-.108 14.197-.108 21.51-.538.43-.108.753.215.753.538zm10.97 90.234c5.485 1.721 11.4 2.581 17.531 2.581 7.098 0 13.874-1.183 20.112-3.442l-19.144-52.269-18.499 53.13zm-42.697-57.647c0 23.984 14.089 44.741 34.416 54.42l-29.038-79.372c-3.442 7.636-5.377 16.133-5.377 24.952zm5.377-24.952c-3.442 7.636-5.377 16.025-5.377 24.952 0 23.984 14.089 44.741 34.416 54.42l-29.038-79.372zm55.818 29.469l-18.499 53.13c5.485 1.721 11.4 2.581 17.531 2.581 7.098 0 13.874-1.183 20.112-3.442l-19.144-52.269zm51.947-33.125c.323 8.927-2.366 20.112-5.27 28.286l-18.821 53.13c18.606-10.217 31.297-30.006 31.297-52.807 0-10.325-2.581-20.112-7.206-28.608zm-23.016-5.593c.215-7.098 5.485-10.325 10.755-10.11-10.755-9.895-25.059-15.917-40.761-15.917-21.187 0-39.793 10.97-50.548 27.425 6.883-.108 14.197-.108 21.51-.538.323 0 .538.323.538.645v3.657c0 .323-.215.645-.538.645h-6.991c-.753 0-1.075.43-.86 1.291l21.833 64.422 13.336-40.116-8.819-24.199c-.323-.86-.753-1.291-2.043-1.291h-6.13c-.323 0-.538-.215-.538-.645v-3.657c0-.323.215-.645.538-.645 11.4.538 22.801.538 34.308 0 .323 0 .538.215.538.645v3.657c0 .323-.215.645-.538.645h-6.13c-1.183 0-1.613.538-1.291 1.506l21.51 63.347 7.851-24.091c9.787-29.146-7.959-32.157-7.528-46.677z"/>
  </symbol>
  <!-- RESUME -->
  <symbol id="resume" viewBox="0 0 200 200">
    <path d="M47.5 140h105c6.925 0 12.5 5.575 12.5 12.5s-5.575 12.5-12.5 12.5h-105c-6.925 0-12.5-5.575-12.5-12.5s5.575-12.5 12.5-12.5zm75-110h30c6.925 0 12.5 5.575 12.5 12.5s-5.575 12.5-12.5 12.5h-30c-6.925 0-12.5-5.575-12.5-12.5s5.575-12.5 12.5-12.5zm0 55h30c6.925 0 12.5 5.575 12.5 12.5s-5.575 12.5-12.5 12.5h-30c-6.925 0-12.5-5.575-12.5-12.5s5.575-12.5 12.5-12.5zm-60.716-9.615c-14.839 0-26.784 11.948-26.784 26.79v7.825h65v-7.825c0-14.843-11.946-26.79-26.784-26.79zm24.754-21.346a19.038 19.038 0 0 1-19.038 19.038 19.038 19.038 0 0 1-19.038-19.038 19.038 19.038 0 0 1 19.038-19.038 19.038 19.038 0 0 1 19.038 19.038z"/>
  </symbol>
  <!-- GITHUB -->
  <symbol id="github" viewBox="0 0 200 200">
    <path d="M100 30c-39.6 0-71.8 32.1-71.8 71.8 0 31.7 20.6 58.6 49.1 68.1 3.6.7 4.9-1.6 4.9-3.5 0-1.7-.1-7.4-.1-13.4-20 4.3-24.2-8.5-24.2-8.5-3.3-8.3-8-10.5-8-10.5-6.5-4.5.5-4.4.5-4.4 7.2.5 11 7.4 11 7.4 6.4 11 16.8 7.8 20.9 6 .6-4.6 2.5-7.8 4.6-9.6-15.9-1.8-32.7-8-32.7-35.5 0-7.8 2.8-14.2 7.4-19.3-.7-1.8-3.2-9.1.7-19 0 0 6-1.9 19.7 7.4 5.7-1.6 11.9-2.4 18-2.4s12.2.8 18 2.4c13.7-9.3 19.7-7.4 19.7-7.4 3.9 9.9 1.4 17.2.7 19 4.6 5 7.4 11.4 7.4 19.3 0 27.6-16.8 33.6-32.8 35.4 2.6 2.2 4.9 6.6 4.9 13.3 0 9.6-.1 17.3-.1 19.7 0 1.9 1.3 4.1 4.9 3.4 28.5-9.5 49-36.4 49-68.1.1-39.5-32.1-71.6-71.7-71.6zm-44.9 102.2c-.2.4-.7.5-1.2.2-.5-.2-.8-.7-.6-1.1.2-.4.7-.5 1.2-.2s.8.8.6 1.1zm3.5 3.2c-.3.3-1 .2-1.5-.3s-.6-1.2-.2-1.5c.4-.3 1-.2 1.5.3s.6 1.2.2 1.5zm2.5 4c-.4.3-1.2 0-1.6-.6-.4-.6-.4-1.4 0-1.7.4-.3 1.2 0 1.6.6.4.6.4 1.4 0 1.7zm4.1 4.7c-.4.4-1.2.3-1.8-.3-.6-.6-.8-1.4-.4-1.8.4-.4 1.2-.3 1.9.3.5.5.7 1.4.3 1.8zm5.3 1.6c-.2.6-1 .8-1.8.6-.8-.2-1.3-.9-1.2-1.5.2-.6 1-.8 1.8-.6.8.2 1.3.9 1.2 1.5zm6 .6c0 .6-.7 1.1-1.5 1.1-.9 0-1.6-.5-1.6-1 0-.6.7-1.1 1.5-1.1.9 0 1.6.4 1.6 1zm5.9-.2c.1.6-.5 1.2-1.3 1.3-.8.2-1.6-.2-1.7-.8-.1-.6.5-1.2 1.3-1.3.8-.1 1.6.2 1.7.8z"/>
  </symbol>
  <!-- LINKEDIN -->
  <symbol id="linkedin" viewBox="0 0 200 200">
    <path d="M50.6 35.1c8.6 0 15.6 7 15.6 15.6s-7 15.6-15.6 15.6-15.6-7-15.6-15.6 7-15.6 15.6-15.6zm-13.5 43.1h26.9v86.7h-26.9v-86.7zm43.9 0h25.8v11.8h.4c3.6-6.8 12.4-14 25.5-14 27.3 0 32.3 18 32.3 41.3v47.5h-26.9v-42.2c0-10.1-.2-23-14-23-14 0-16.2 11-16.2 22.3v42.9h-26.9v-86.6"/>
  </symbol>
  <!-- CODEWARS -->
  <symbol id="codewars" viewBox="0 0 200 200">
    <path d="M34.1 101.1l-.5-.2c-1.1-.6-1.9-1.5-2.5-2.6-.8-1.5-1.2-2.9-1.2-4.4l.1-.8c0-1.2.3-2.2.8-3.2l.5-.9c.2-.5.6-.9.9-1.3.4-.4.4-.9.3-1.4l-.3-.9c-.4-1.2-.6-2.3-.6-3.5l-.2-.7c0-1.3.4-2.6 1.2-3.5l.6-.8c.4-.6 1.1-.9 1.8-1.2.6-.2 1-.8 1.1-1.5l.1-2c0-1.6.8-3 1.9-4.1l1.4-1.1c.3-.3.6-.6.8-1.1.3-.4.4-.8.3-1.2-.1-.6 0-.8.3-.8.9.4 1.5.2 1.9-.2l.8-1 2.1-2.3c.6-.6.8-1.6.5-2.5l-.7-1.5c-.1-.4 0-.8.3-.9.8 0 1.3.3 1.5.8l.2.4c.4.7 1.2 1.1 1.8.8 1.3-.5 2.3-.6 3.3-.6h1.9c1.3 0 2.3-.9 2.6-2.2.2-1.6.8-2.9 1.6-3.8.9-1 1.9-1.8 3-2.3 1.5-.8 2.5-2 2.7-3.5.4-1.9 1.4-3.2 2.7-4.1l4.4-2.5 1.3-.8c.8-.5 1.5-1.1 2-1.8l1.2-1.4c.6-.6 1.2-1 1.9-1.2.6-.2 1.4-.3 2.1-.2l2.3.2c1.2 0 2.1.3 3 .7l.6.3c.6.2 1.2.1 1.5-.3l.5-.3 2.5-2.6c.6-.6 1.3-.8 2-.7.8.1 1.5.4 2.2.8 1.1.6 1.9.8 2.9.8h.6c1.3 0 2.6.2 3.9.5l.9.2c.9.2 1.8-.1 2.3-.8.2-.3.6-.4.8-.1.2.1.2.2.3.4.1 1.2.8 2 1.8 2.3l.9.3c1 .3 1.9.9 2.5 1.8.6.9 1.3 1.8 2.1 2.3l.6.6c.6.6 1.4.8 2.2.8h3.5c1.4 0 2.7.2 4.1.8 1.3.6 2.6.7 3.9.2 1.3-.4 2.6-.6 4-.4l2.5.4c1.2.1 2.3.7 3 1.6l.3.3c.6.6 1.2 1.3 1.8 2.2.4.8 1.2 1.2 2 1.2h3.6c.9 0 1.8.2 2.5.6.8.6 1.4 1.2 2 1.8l.6.8c.7.8 1.1 1.9 1 3.1 0 .9.7 1.8 1.6 1.8l1.2.1c.8 0 1.5.6 1.9 1.3l.6 1.2 1.5 3.4c.2.6.3 1.2.2 1.6 0 .6.2 1.1.6 1.3l.6.4c.8.6 1.2 1.5 1.1 2.5l-.4 2.7-.1 1.2c-.1.6.2 1.3.7 1.8.9.6 1.3 1.3 1.3 2.2v1.2c0 .6-.1 1.3-.6 1.8-.4.5-.6 1.1-.6 1.8l.2 1.3c0 .9.6 1.8 1.2 2.3.8.6 1.3 1.5 1.4 2.5.2 1.5.3 2.6.3 3.8v1.3c0 .5 0 .9.2 1.4.1.4.4.8.8 1.1l1.2.9c1.2.8 2 1.8 2.5 3.1.6 1.3.8 2.6.8 4v.5c0 1.1-.1 2.2-.5 3.2-.3 1.1-.2 2 .2 2.9.5.8.8 1.8.9 2.7.2 1.2.1 2.3-.3 3.3l-.1.4c-.3.7-.8 1.3-1.3 1.9-.6.6-1.2.9-1.5 1.3-.4.4-.6.9-.4 1.5l.2.8c.3 1.2.3 2.3 0 3.4v.5c-.2.9-.6 1.6-.9 2.3-.4.8-1 1.3-1.8 1.8l-.9.6c-.4.2-.7.8-.7 1.3 0 .6-.2 1.2-.6 1.5l-.9 1.2c-.6.8-1.3 1.4-2.2 1.8-.8.6-1.5 1.2-2 1.8-.6.7-1.1 1.5-1.3 2.3-.2 1.1-1.1 1.6-1.9 1.6h-3.2c-.8 0-1.6.6-1.9 1.3-.4.9-.8 1.6-1.3 2.2-.6.6-.9 1.3-1.2 2.1-.1.7-.7 1.2-1.3.9-.8-.4-1.5 0-1.9.6-.7 1.2-1.4 2-2.2 2.8l-.4.4c-.8.6-1.8 1.1-2.6 1.1-1.1 0-1.6.5-1.8 1.2-.2.6-.3 1.3-.4 2-.1.7-.4 1.3-.6 1.9l-.3.4c-.6.9-1.1 1.8-1.6 2.5l-.2.4c-.8 1-1.8 1.8-2.9 2-1.4.5-2.6.6-3.9.6h-.8c-.6 0-1.2.4-1.6.9l-.4.6-.4.7-.8 1.3c-.6 1.1-1.5 1.8-2.6 2.1-1.2.3-2.5.4-3.7.4l-.9-.1c-.8 0-1.6-.2-2.3-.6-.6-.2-1.4 0-1.8.6-.6.8-1.3 1.3-2 1.5l-1.8.6c-1.2.3-2.5.3-3.7 0l-.9-.3c-.6 0-1.2-.3-1.6-.6-.6-.3-1.2-.4-1.8-.4l-.8.1c-1.2.1-2.2 0-3.3-.3l-1.6-.4c-.7-.2-1.3-.7-1.8-1.3-.3-.6-.9-1.1-1.8-1.2h-1.9c-1.2-.2-2.2-.6-2.9-1.5l-2.3-2.2-.8-.7-1.3-.9-.8-.6c-.9-.6-1.9-1.1-3-1.2l-3.5-.6c-.4 0-.6-.1-.9-.2l-1.3-.3c-.6-.1-1.2-.6-1.6-1.2-.4-.6-1-.8-1.6-.6-1.2.5-2.1.6-3 .8h-.8c-1.5.1-2.9-.1-4.3-.8-1.4-.6-2.3-1.5-3.2-2.6-.7-1-1.8-1.8-3-2l-1.6-.4c-1.2-.2-2.3-.7-3.4-1.4-1.2-.8-1.8-1.6-2.2-2.5-.5-.9-.8-1.9-.8-2.9v-.5c-.1-1.2-.9-2.2-2-2.5-1.3-.4-2.3-1-3.2-1.8-.8-.8-1.3-1.9-1.3-3l.1-2.6c0-1-.3-1.9-1-2.5-.7-.7-1.2-1.6-1.2-2.5l-.2-2.1c-.1-1.5-.4-3-.8-4.6-.4-1.3.2-2.7 1.3-3.3l.4-.3c.6-.4.8-1.2.5-1.9l-.5-.6c-.6-.6-1.2-1-1.8-1.2-.5-.1-.6-.6-.6-.9l.6-.7c.4-.4.3-1.1 0-1.4-.5-.5-.7-1.1-.8-1.6l-.1-4.1c0-.8.1-1.6.4-2.5.1-.9-.1-1.7-.8-2zm57.9-7.7c.4-.4.4-1.2 0-1.5-.6-.5-1-1-1.3-1.6l-.6-.9c-.4-.8-.9-1.4-1.5-2l-.1-.1c-.6-.5-1-1.1-1.3-1.8-.3-.6-.3-1.2 0-1.8l.4-.6c.4-.6.6-1.4.6-2.1v-.2c0-.6-.2-1.2-.6-1.8-.2-.5-.5-1.1-.6-1.6v-.4c-.2-.7 0-1.5.5-2 .5-.8.8-1.5 1-2.3v-.1c.2-.6.1-1.3-.2-1.9-.4-.6-.5-1.2-.2-1.9l.4-1.2c.4-1.1.9-2 1.6-2.8l.8-.9.6-.7.4-.4c.4-.4.4-.9.1-1.4-.3-.6-.5-1.2-.4-1.8l.1-.8c.2-1.2.6-2.3 1.3-3.3l.2-.2c.9-1.2 2-1.9 3.3-2.3l1.6-.6c.7-.2 1.2-1 1.2-1.8 0-.9.3-1.8.8-2.5l.3-.3c.6-1 1.3-2 1.8-3l.4-.8c.1-.2.2-.4.2-.6 0-1-.6-1.9-1.5-1.9l-2.6-.2c-1.5-.1-2.9 0-4.3 0l-5 .6c-.8 0-1.3.6-1.4 1.4 0 .8-.6 1.5-1.3 1.8l-2.1.6-.9.3-1.7.5c-1.3.4-2.3 1.3-2.9 2.6l-.5.8c-.6 1.3-1.6 2.4-2.8 3.1-1.2.8-1.8 2-1.9 3.4v.6c-.1 1.2-.5 2.3-1.2 3.2l-.3.5c-.5.6-.6 1.3-.3 2s.5 1.5.4 2.2v3.1c0 .8-.6 1.5-1.2 1.8-.8.3-1.3.9-1.6 1.8l-.3 1.2c-.2 1.2.2 2.3 1.2 3 .9.7 1.5 1.8 1.8 3v1.1c.2 1.2.8 2.3 1.9 2.9 1.1.7 1.9 1.8 2.3 2.9l.3.9c.5 1.3 1.5 2 2.7 2.2h.4c1.1 0 2 .6 2.6 1.5s1.5 1.6 2.6 1.8l1.6.5c1 .3 1.9.8 2.7 1.6l.1.1c.6.5 1.5.4 2-.2l.4-.7zm6.7-5.4c.6.4 1.2.2 1.4-.4l.2-.3c.4-.8.9-1.6 1.5-2.3l1.2-1.8c.2 0 .2-.1.3-.2l1.4-1.9c.6-.6 1.3-1 2.1-1s1.4-.4 1.8-1.2c.2-.8.6-1.6 1.3-2.2l.3-.4c.6-.6 1.2-.9 1.8-1.2.8-.1 1.5-.2 2.2-.2h1.8c.7 0 1.3-.3 1.6-.9.4-.6.9-1 1.5-1.3l.6-.2c.9-.4 2-.7 3-.8l1.2-.1c.7 0 1.5 0 2.2.4.6.4 1.3.4 1.9-.1l.4-.2c.9-.6 1.9-1.1 2.9-1.2h.1c1.2-.2 2.2-.2 3.4-.2h.6c1.2.2 2.2.6 2.9 1.5l.2.2c.6.6 1.5 1.1 2.3 1.1h1c.3 0 .6-.1.8-.4.2-.2.5-.4.8-.4h.6c.8 0 1.6.2 2.3.5l1 .4c.9.3 1.9.6 2.9.7h.7c.5 0 .8-.3.8-.7 0-.6-.1-1.2-.4-1.6l-.4-.9c-.5-.8-.8-1.6-1.2-2.3l-.1-.3c-.3-.6-.3-1.2 0-1.8v-.3c.1-.5-.1-1-.6-1.2h-.5c-.9-.3-1.8-.8-2.3-1.6l-.6-.6c-.6-.6-.9-1.5-1.2-2.3-.3-.8-.9-1.3-1.8-1.3h-2.5c-.9-.1-1.6-.6-2.2-1.3l-.2-.3c-.4-.6-.8-1.3-1-2-.3-.6-.9-.9-1.5-.8l-.7.2c-1.2.4-2.3.6-3.5.5l-.9-.1c-1 0-1.9-.4-2.7-1l-.6-.4c-.5-.4-.9-.6-1.5-.8-.6-.2-1.1-.1-1.4.3l-.3.4c-.6.6-1.4 1.1-2.2 1.2l-3.2.2c-.6 0-1.2.3-1.6.7-.5.4-1 .7-1.6.8h-.1c-.6 0-1.2.4-1.8.8v.1c-.6.6-1.3.9-2.1.9l-.2.1c-.7 0-1.4 0-2.1.2h-.7c-1 .2-1.8 1-2 2l-.2 1.3c-.2.9-.6 1.8-1.2 2.5s-1.3 1.2-2.2 1.2h-1c-.6.1-1.2.8-1.1 1.5.1 1 0 1.9-.2 2.7l-.2 1c-.2.9-.8 1.6-1.6 1.9l-.3.2h-.1c-.4.2-.6.8-.3 1.2.4.6.5 1.2.4 1.8l-.2 1.9c0 .7-.3 1.3-.6 1.9-.4.6-.4 1.2-.1 1.8l.6 1.3c.3.6.4 1.2.2 1.9-.2.6-.3 1.2-.2 1.8 0 .6.4 1.2.8 1.4l.1.1.1-.1zm46.2 42.3c.6.6 1.5.8 2.2.4l1.2-.8c.6-.4 1.1-1 1.3-1.8v-.1l.6-1.8.4-.6.2-.6.2-.4c.2-.5.6-.8 1.2-1l.2-.1c.5-.1.8-.6.8-1.1 0-.6.3-1.1.6-1.5l.5-.4 1.2-1.5c.4-.5.6-1 .7-1.6.1-.6 0-1.2-.2-1.8l-.1-.2c-.2-.6-.4-1-.4-1.5l-.2-1.6-.2-1.8c0-.6.2-1.2.6-1.8.4-.5.7-1.1.9-1.6v-.2l.1-.1c.1-.6-.2-1.2-.7-1.2-.6-.3-1.2-.8-1.3-1.5l-.2-.4c-.3-1.1-.5-2.1-.5-3.2l.1-2.9v-.2c0-1-.8-1.8-1.8-1.8h-.3c-1.2 0-2.1-.4-2.9-1.2l-.5-.6-1.2-1.3-1.5-1.8c-.6-.8-1.2-1.5-1.9-2.2-.6-.6-1.5-1.2-2.3-1.3l-1.2-.2c-.6-.1-1.3-.4-2-.8-.5-.4-1.2-.2-1.6.2l-.8.8-.4.2c-.4.1-.8-.1-1-.6-.2-.7-.2-1.5.1-2.2v-.4c0-.4-.4-.7-.7-.6h-.9c-1.1 0-2.1-.1-3.1-.6l-.6-.2c-.6-.3-1.3-.5-1.9-.5-.6 0-1.2.1-1.8.5l-.2.2c-.7.5-1.5.7-2.3.8h-1.9c-.9 0-1.8.3-2.3.8-.8.5-1.6.8-2.5.9l-1.6.5c-.7.2-1.5.5-2.1 1-.6.6-1.4.9-2.2 1.2l-.3.1c-.9.3-1.8.9-2.3 1.8l-.7.7c-.4.6-.4 1.3 0 1.9.4.6 1.1.8 1.8.6l.9-.4c.5-.2 1 0 1.4.2.4.3.9.5 1.4.4l1.5-.2c.8 0 1.6 0 2.5.2.9.3 1.6.6 2.3 1.2.7.6 1.5.8 2.3.9.9.1 1.8.3 2.6.6l.6.1c.6.2 1.1.6 1.4 1.2.3.5.6 1.2.6 1.8v.2c0 .7.6 1.2 1.2 1.2h.4c.9 0 1.9.1 2.9.4l.4.2c.6.2 1.2.6 1.6 1.2.5.6.8 1.2.9 1.8l.2.8c.2.9.2 1.8.2 2.7v.3c0 .6.4 1.2 1.1 1.4.6.1 1.3.4 1.9.7l.3.1c.8.5 1.5 1.1 2.1 1.8l.3.4c.8.9 1.2 2 1.2 3.1v.4c0 .9-.2 1.8-.5 2.6-.2.7 0 1.5.8 1.8l.4.3c.9.4 1.6 1 2.2 1.8.6.9.8 1.9.8 2.9v1.8c-.1.6-.3 1.1-.6 1.5-.3.4-.3 1 0 1.4l.4.6v-.4zm-37.5-30h-.1c-.2 0-.4.3-.3.6l.2 1.2c.2.9.4 1.9.5 2.8.1.9.6 1.8 1.3 2.3h.2c.9.7 1.4 1.8 1.5 2.8v2.9c-.1.6 0 1.2.4 1.6l.3.3c.6.7.8 1.5.9 2.3l.2 3.2c0 .8-.5 1.4-1.2 1.5l-.6.1c-.4 0-.6.5-.6.9 0 .5.2 1 .4 1.5v.1c.2.6.2 1.2.2 1.8l-.2 1.6c-.2 1.2-.6 2.2-1.2 3.3l-.4.7c-.3.6-.7.9-1.2 1.2-.6.2-1 .7-1.2 1.3l-.5 2.1c-.3 1.2-.8 2.3-1.5 3.5h-.1c-.7.9-1.6 1.8-2.6 2.3l-.7.5-1.8.9c-.6.2-.9.8-1.1 1.4l-.3 1.9c-.2 1.2-.6 2.2-1.4 2.9l-.8.9-.9.9-.9.9c-.7.8-1.8 1.2-2.9 1l-2.1-.4-1.9-.2h-.5c-.2.2-.3.6-.1.9.4.7 1.1 1.2 1.8 1.2l1.3.2c.6 0 1.3.3 1.9.6.6.4 1.2.7 1.9.9h.1c.8.3 1.6.4 2.3.3l.9-.1c1-.1 1.9 0 2.7.4l.7.2c.3.1.8 0 1.1-.3.4-.4.7-.6 1.2-.8l.5-.1c.8-.2 1.5-.4 2.3-.4h.5c.7 0 1.3.1 1.9.5l.2.1c.4.2.9 0 1.2-.4.2-.4.6-.8 1-1.2l1.5-1 .9-.6.5-.3c.6-.4 1.4-.6 2.1-.6l2.1-.2c.8-.1 1.5-.7 1.8-1.5.2-.9.6-1.8 1.2-2.5.6-.8 1.2-1.4 1.8-2 .8-.6 1.5-.9 2.3-.9h.5c.9-.2 1.6-1.1 1.6-2v-3.9c.1-.6.4-1.3.7-1.9l1.2-1.8.5-.6c.4-.3.6-.7 1-1.2l.6-.8c.4-.6.4-1.3-.1-1.9-.6-.6-.9-1.4-1-2.2-.1-.9-.1-1.9.2-2.9v-.3c.3-.8.7-1.5 1.2-2.2.5-.6.4-1.4-.2-1.9l-1-.9c-.8-.7-1.3-1.8-1.4-2.8l-.1-1.2c0-.4 0-.8-.1-1.2l-.1-.9c-.1-1-.7-1.8-1.5-2.3l-.4-.1c-.6-.4-1.2-.9-1.6-1.6-.5-.6-.7-1.4-.9-2.2l-.2-1c0-.4-.2-.6-.6-.8l-.9-.3-1.9-.6c-.6-.1-1.2-.6-1.6-1h-.1c-.4-.5-.9-.5-1.3-.1l-.6.6c-.1.2-.2.2-.4.2-.4 0-.6-.3-.5-.6.1-.9-.2-1.9-1-2.5l-.8-.6-1.8-1.2c-.5-.2-1.2 0-1.4.6l-.2.4c0 .1-.2.2-.2.2-.2 0-.6 0-.6-.3l-.2-.3c-.2-.4-.6-.6-.9-.7l-.6-.2zm-7 5.9l-.3-.3c-.3-.2-.6-.2-.9.1-.4.7-.8 1.5-.9 2.2v.1c-.2.8-.9 1.3-1.6 1.2h-.7c-.8 0-1.5.7-1.5 1.5 0 1.1-.4 2.1-1 2.9l-.4.4c-.6.8-1.5 1.3-2.3 1.6l-.5.1c-.6.2-1.1.6-1.2 1.3 0 .6-.4 1.2-.8 1.6l-.6.5c-.7.8-1.8 1.2-2.8 1.3l-2.9.3c-.9 0-1.8.6-2.3 1.5-.6.9-1.5 1.5-2.3 1.6l-1.3.1c-.9.1-1.9.1-2.9-.1l-.6-.1-1.6-.4c-.6-.2-1.1 0-1.4.4l-.6.8c-.8.9-1.9 1.3-2.9 1.2l-3.8-.5c-.6 0-1.1-.3-1.6-.6-.6-.4-1-.8-1.4-1.2l-1.5-1.8c-.2-.1-.5-.2-.8-.1l-.8.4-3.3.8c-.6.2-1.3 0-1.9-.4-.6-.5-1.3-.6-2-.6h-.8c-.7.2-1.2.9-.9 1.6l.2 1.2c.2.6.1 1.3-.2 1.9-.3.6-.2 1.2.2 1.8l.4.5c.5.7 1.2 1.3 1.8 1.9s1.2 1.2 1.6 1.9l.9 1.6c.5.8 1.2 1.3 2.1 1.3.9 0 1.8.3 2.5.9l1.8 1.6c.5.4 1.2.5 1.6.1l.3-.1c.4 0 .6.2.6.6v.3c0 .8.6 1.5 1.3 1.8l2.6.6c.9.3 1.9.6 2.7 1.2h.5c.5 0 .9-.4.8-.9v-2c0-.6.2-1.2.7-1.4l.3-.1c.3.1.6.4.5.6v1c0 .8.2 1.5.8 2 .6.6 1.3.7 2 .5.7-.3 1.4-.4 2.2-.3l2.2.1c1.1.1 2 0 2.9-.4 1.1-.4 1.9-.8 2.7-1.5l.4-.2 1.8-1.6c.6-.6 1.3-.9 2-.9h2.3c1.2-.1 2.2-1.2 2.3-2.3l.2-1.2c0-.8.4-1.5.9-2 .6-.6 1.2-.9 1.8-1.2l.7-.3c1-.4 1.8-1.3 2.1-2.3l.4-1.4c.3-1.2.9-2.3 1.8-3.1l.1-.1c.7-.6.8-1.8.4-2.6l-.2-.4c-.4-.6-.5-1.5-.2-2.2.3-.8.6-1.5 1.1-2.2l.6-.8c.2-.5.2-1.2-.1-1.6-.4-.5-.6-1.1-.6-1.6l-.1-.8v-2c.1-.6 0-1.3-.2-1.9l-.2-.7-.2-.7zm-8.4-4.5v-.2c0-.6-.4-.9-.8-.9h-1.5c-.6.1-1.2.1-1.6 0h-2.6c-1.3 0-2.6-.2-3.9-.6l-1.4-.4-1.2-.4-2.6-.9c-1.4-.4-2.5-1.3-3.1-2.6l-.3-.6c-.4-.9-1.3-1.3-2.2-1.2-1 0-2 0-2.9-.5l-.7-.3c-1.3-.6-2.3-1.8-2.3-3.3l-.2-1.6c-.2-.8-.7-1.6-1.4-1.9-.8-.4-1.6-.8-2.3-1.3h-.5c-.9-.7-1.6-1.6-2-2.7l-.1-.4c-.3-.9-.4-1.9-.2-2.9l.1-.4c.2-.8.3-1.5.3-2.3 0-.7-.3-1.4-.8-1.9l-.8-.8c-.9-.8-1.5-1.9-1.6-3.1-.1-1.3-.1-2.5.1-3.7v-.4c0-.7-.6-1.2-1.2-1.2h-.2c-.8 0-1.4.5-1.8 1.2-.3.8-.8 1.5-1.3 2.1l-.2.3-1 1.2-.6.6c-.6.6-.9 1.5-1.1 2.3-.1.9-.4 1.8-.7 2.6l-.1.3c-.3.7-.8 1.3-1.3 1.8-.6.5-1 1.2-1 1.9l-.1 2.7c0 1.2-.2 2.3-.6 3.5l-.1.5c-.3.8 0 1.6.7 1.9l2.5 1.1.2.1c.2 0 .2.1.3.3.2.2 0 .6-.2.6l-.6.3c-.4.1-.6.5-.7.9l-.1.6v.1l-.6 3.3c-.1.5-.1 1-.1 1.5s.3.9.7 1.1l1.3.6c.6.4 1.3.8 1.8 1.2l.6.5c.2.2.5.5.7.6l.2.2c.4.4.7.8.8 1.3l.6 2.6c0 .7.6 1.3 1.2 1.5l.9.3s.2 0 .3.1l1.2.4c.9.3 1.8.8 2.5 1.5.7.6 1.4 1.3 2 2.2l.2.2c.5.6 1.2.9 1.9.7.7-.2 1.5-.2 2.2-.2h.9c.6 0 1.3.2 2 .6.6.4 1.3.6 2 .9h.2c.7.3 1.5.2 2-.2.6-.5 1.3-.7 2.1-.7l2.7.2c.6 0 1.2-.1 1.5-.6h.1l1-.9.3-.3c.5-.6 1.2-.8 1.9-.9h2.6c.7 0 1.3-.6 1.6-1.2.3-.6.9-1.1 1.6-1.2l1.2-.2c.5 0 .9-.4 1.1-.9.2-.6.5-1.1.9-1.4l.9-.9c.6-.6.9-1.2 1-1.9l-.3-.4z"/>
  </symbol>
  <!-- E-MAIL -->
  <symbol id="email" viewBox="0 0 200 200">
    <path d="M42.2 47.5h115.5c4 0 6 4.8 3.2 7.7l-54.6 54.6c-3.5 3.5-9.2 3.5-12.7 0l-54.6-54.6c-2.8-2.9-.8-7.7 3.2-7.7zm-17.2 13.6v85l44-44c1.2-1.2 1.2-3.1 0-4.2l-38.9-38.9c-1.9-1.9-5.1-.6-5.1 2.1zm106 41l44 44v-85c0-2.7-3.2-4-5.1-2.1l-38.9 38.9c-1.2 1.2-1.2 3 0 4.2zm37.6 50.4c1.8 0 3.3-.7 4.5-1.9l-45.3-45.3c-1.2-1.2-3.1-1.2-4.2 0l-10.8 10.8c-7 7-18.4 7-25.5 0l-10.8-10.8c-1.2-1.2-3.1-1.2-4.2 0l-45.3 45.3c1.2 1.2 2.7 1.9 4.5 1.9h137.1"/>
  </symbol>
  <!-- FACEBOOK -->
  <symbol id="facebook" viewBox="0 0 200 200">
    <path d="M138 200v-77.5h26l3.9-30.2h-29.9v-19.2c0-8.7 2.4-14.7 15-14.7h16v-27c-2.8-.4-12.3-1.2-23.3-1.2-23 0-38.8 14.1-38.8 39.9v22.3h-26.1v30.2h26.1v77.4h31.1"/>
  </symbol>
  <!-- BEHANCE -->
  <symbol id="behance" viewBox="0 0 200 200">
    <path d="M30 100v43.5h21.4c12.8 0 22.3-.1 23.8-.2 9.1-.9 14.3-3 19-7.9 3-3.1 5.3-7.1 6.4-11.3.5-2 .6-2.4.6-6.8s0-4.8-.6-6.8c-1.6-5.8-5.1-10-10.3-12.6l-2.1-1.1 1.8-1.1c5.5-3.4 8.1-7.9 8.6-15 .3-4-.6-8.7-2.2-12-3.1-6.2-8.6-9.9-17-11.5-2.3-.5-3-.5-25.8-.5l-23.6-.2v43.5zm40.8-28.2c2.5.3 5.5.9 6.4 1.4 1.2.6 2.5 2 3.2 3.4.6 1.3.6 1.5.6 4.4 0 2.9 0 3.1-.6 4.4-1.3 2.8-4.1 4.5-8.7 5.1-1 .1-6 .2-11.7.2h-9.9v-19.2h9.3c5.1.1 10.3.2 11.4.3zm3.9 34c3.6.9 6.5 3.1 7.5 5.8 1.2 3.2.9 8.1-.6 11.1-1.2 2.5-3.7 4.3-7 5.2-1.6.5-2.2.5-13.1.6l-11.4.1v-23.2l11.5.1c9.8-.1 11.8 0 13.1.3zm46.7-41.4v4.4h35v-8.8h-35v4.4zm13.7 12.6c-6.1.9-10.1 2.3-14 4.9-7 4.8-11.1 11.7-12.4 21.1-1.3 9.1-.2 18.4 3 24.6 1.3 2.7 2.4 4.2 4.4 6.2 3 3 7.5 5.7 12 7.3 8.3 2.9 19.8 2.4 27.1-1.3 6.9-3.4 12.8-10.5 13.9-16.4l.1-.8h-16.6l-.6 1c-.8 1.4-2.6 3.3-4 4.1-.6.4-1.9 1-2.8 1.3-1.6.5-2 .6-5 .6-3.8 0-5.1-.3-8-1.6-4.4-2.2-6.9-6.3-7.5-12.6l-.1-1.1h45.400000000000006l-.1-5.1c-.2-7.9-1-11.7-3.4-16.7-2.7-5.5-6.8-9.7-11.9-12.3-4.3-2.2-8.7-3.1-14.6-3.2-2.4-.1-4.6-.1-4.9 0zm7.9 13.7c3.8.9 7.3 3.7 8.7 7.1.5 1.1 1.1 3.3 1.2 4.7l.1.9h-28.1l.1-.8c.4-2.8 1.9-6.2 3.8-8.4 2.9-3.3 8.6-4.8 14.2-3.5z"/>
  </symbol>
  <!-- CLOSE BUTTON -->
  <symbol id="close" viewBox="0 0 200 200">
    <path d="M199 36.4l-35.4-35.4-63.6 63.6-63.6-63.6-35.4 35.4 63.6 63.6-63.6 63.6 35.4 35.4 63.6-63.6 63.6 63.6 35.4-35.4-63.6-63.6z"/>
  </symbol>
</svg>