<svg xmlns="http://www.w3.org/2000/svg" style="display: none;">
  <symbol id="check-circle"  viewBox="0 0 500 500" background="new 0 0 500 500">
    <path d="M250,0C111.9,0,0,111.9,0,250c0,138.1,111.9,250,250,250c138.1,0,250-111.9,250-250C500,111.9,388.1,0,250,0z M358,168.4L240.5,331.3c-1.6,2.3-3.8,4.2-6.3,5.5c-2.5,1.3-5.3,2-8.1,2c-2.8,0-5.6-0.7-8.1-2c-2.5-1.3-4.7-3.2-6.3-5.5L142,234.9 c-2.1-3,0-7.1,3.6-7.1h26.2c5.7,0,11.1,2.7,14.5,7.4l39.7,55.1l87.7-121.7c3.3-4.6,8.7-7.4,14.5-7.4h26.2 C358,161.3,360.1,165.4,358,168.4z"/>
  </symbol>
</svg>